<svg width="15" height="16" viewBox="0 0 15 16" fill="none" xmlns="http://www.w3.org/2000/svg">
<path d="M5.53188 11.5625C6.63022 12.6609 8.411 12.6609 9.50937 11.5625L9.5094 11.5625L11.5169 9.55499C11.8893 9.19528 11.8996 8.60179 11.5399 8.22937C11.1802 7.85694 10.5867 7.84663 10.2143 8.20634C10.2065 8.21387 10.1988 8.22157 10.1913 8.22937L8.4519 9.96811L8.43751 1.4375C8.43751 0.919736 8.01778 0.5 7.50001 0.5C6.98225 0.5 6.56251 0.919736 6.56251 1.4375L6.57564 9.95437L4.85002 8.22875C4.4776 7.86904 3.8841 7.87936 3.5244 8.25178C3.17351 8.61509 3.17351 9.19106 3.5244 9.55437L5.53188 11.5625Z" fill="#333333"/>
<path d="M14.0625 9.56249C13.5447 9.56249 13.125 9.98223 13.125 10.5V13.3694C13.1246 13.5104 13.0104 13.6246 12.8694 13.625H2.13062C1.98958 13.6246 1.87532 13.5104 1.875 13.3694V10.5C1.875 9.98223 1.45526 9.56249 0.9375 9.56249C0.419736 9.56249 0 9.98223 0 10.5V13.3694C0.00137695 14.5455 0.954492 15.4986 2.13062 15.5H12.8694C14.0455 15.4986 14.9986 14.5455 15 13.3694V10.5C15 9.98223 14.5803 9.56249 14.0625 9.56249Z" fill="#333333"/>
</svg>
