<svg width="120" height="48" viewBox="0 0 120 48" fill="none" xmlns="http://www.w3.org/2000/svg">
<g id="fordel-logo 1">
<path id="Vector" d="M46.9521 23.7076V5.91056H58.7358V9.01286H50.7149V13.2536H57.9536V16.3559H50.7149V23.7076H46.9521ZM66.2482 23.9684C64.8984 23.9684 63.731 23.6816 62.7461 23.1081C61.7671 22.5287 61.0111 21.7235 60.4781 20.6922C59.9451 19.6552 59.6786 18.4531 59.6786 17.0859C59.6786 15.7071 59.9451 14.5021 60.4781 13.4708C61.0111 12.4338 61.7671 11.6285 62.7461 11.055C63.731 10.4757 64.8984 10.186 66.2482 10.186C67.5981 10.186 68.7625 10.4757 69.7416 11.055C70.7267 11.6285 71.4852 12.4338 72.0184 13.4708C72.5516 14.5021 72.8178 15.7071 72.8178 17.0859C72.8178 18.4531 72.5516 19.6552 72.0184 20.6922C71.4852 21.7235 70.7267 22.5287 69.7416 23.1081C68.7625 23.6816 67.5981 23.9684 66.2482 23.9684ZM66.2656 21.1006C66.8797 21.1006 67.3924 20.9268 67.8037 20.5792C68.2151 20.2259 68.525 19.745 68.7336 19.1367C68.9479 18.5284 69.0551 17.8361 69.0551 17.0598C69.0551 16.2835 68.9479 15.5912 68.7336 14.9829C68.525 14.3746 68.2151 13.8937 67.8037 13.5403C67.3924 13.1869 66.8797 13.0102 66.2656 13.0102C65.6457 13.0102 65.1243 13.1869 64.7014 13.5403C64.2843 13.8937 63.9685 14.3746 63.7542 14.9829C63.5457 15.5912 63.4413 16.2835 63.4413 17.0598C63.4413 17.8361 63.5457 18.5284 63.7542 19.1367C63.9685 19.745 64.2843 20.2259 64.7014 20.5792C65.1243 20.9268 65.6457 21.1006 66.2656 21.1006ZM63.5978 8.53489C63.0995 8.53489 62.6709 8.36109 62.3117 8.0135C61.9525 7.66011 61.7729 7.24302 61.7729 6.76218C61.7729 6.26974 61.9525 5.85262 62.3117 5.51081C62.6709 5.16901 63.0995 4.99811 63.5978 4.99811C64.1018 4.99811 64.5276 5.16901 64.8752 5.51081C65.2286 5.85262 65.4053 6.26974 65.4053 6.76218C65.4053 7.24302 65.2286 7.66011 64.8752 8.0135C64.5276 8.36109 64.1018 8.53489 63.5978 8.53489ZM68.9161 8.53489C68.4178 8.53489 67.9891 8.36109 67.6299 8.0135C67.2707 7.66011 67.0911 7.24302 67.0911 6.76218C67.0911 6.26974 67.2707 5.85262 67.6299 5.51081C67.9891 5.16901 68.4178 4.99811 68.9161 4.99811C69.4201 4.99811 69.8459 5.16901 70.1935 5.51081C70.5469 5.85262 70.7239 6.26974 70.7239 6.76218C70.7239 7.24302 70.5469 7.66011 70.1935 8.0135C69.8459 8.36109 69.4201 8.53489 68.9161 8.53489ZM75.2253 23.7076V10.3598H78.8136V12.6887H78.9527C79.1964 11.8603 79.6046 11.2346 80.178 10.8117C80.7522 10.383 81.4125 10.1687 82.1596 10.1687C82.3447 10.1687 82.5445 10.1802 82.7592 10.2034C82.9732 10.2266 83.1618 10.2584 83.3242 10.299V13.5838C83.1505 13.5316 82.9096 13.4853 82.6024 13.4448C82.2959 13.4042 82.0149 13.3839 81.7599 13.3839C81.2154 13.3839 80.7288 13.5027 80.3002 13.7403C79.8771 13.972 79.541 14.2964 79.2917 14.7135C79.0488 15.1307 78.9266 15.6114 78.9266 16.156V23.7076H75.2253ZM89.5353 23.9249C88.5212 23.9249 87.6031 23.6642 86.7804 23.1428C85.9633 22.6156 85.315 21.8422 84.8341 20.8225C84.3588 19.7971 84.1215 18.54 84.1215 17.0511C84.1215 15.5217 84.3673 14.25 84.8602 13.2362C85.3524 12.2166 86.0071 11.4547 86.8242 10.9507C87.6469 10.4409 88.5473 10.186 89.5262 10.186C90.274 10.186 90.8969 10.3135 91.3948 10.5684C91.899 10.8175 92.3044 11.1303 92.6116 11.5069C92.9245 11.8777 93.1618 12.2427 93.3242 12.6018H93.4372V5.91056H97.13V23.7076H93.4803V21.5699H93.3242C93.1505 21.9407 92.904 22.3086 92.5855 22.6735C92.2726 23.0327 91.8644 23.3311 91.3602 23.5686C90.8616 23.8062 90.2536 23.9249 89.5353 23.9249ZM90.7084 20.979C91.3051 20.979 91.8094 20.8167 92.2204 20.4923C92.6377 20.1622 92.9562 19.7016 93.1766 19.1106C93.4026 18.5197 93.5149 17.8274 93.5149 17.0338C93.5149 16.2401 93.4054 15.5506 93.1851 14.9655C92.9647 14.3804 92.6462 13.9285 92.2288 13.6099C91.8122 13.2913 91.3051 13.1319 90.7084 13.1319C90.1003 13.1319 89.5876 13.297 89.1702 13.6273C88.7529 13.9575 88.4372 14.4151 88.2232 15.0003C88.0085 15.5854 87.9012 16.2632 87.9012 17.0338C87.9012 17.81 88.0085 18.4965 88.2232 19.0932C88.4428 19.6842 88.7592 20.1476 89.1702 20.4836C89.5876 20.8138 90.1003 20.979 90.7084 20.979ZM106.257 23.9684C104.884 23.9684 103.702 23.6903 102.711 23.1341C101.727 22.5721 100.968 21.7785 100.434 20.753C99.9019 19.7218 99.6349 18.5023 99.6349 17.0946C99.6349 15.7215 99.9019 14.5165 100.434 13.4795C100.968 12.4425 101.718 11.6343 102.685 11.055C103.659 10.4757 104.8 10.186 106.109 10.186C106.989 10.186 107.809 10.328 108.569 10.6118C109.333 10.8899 109.999 11.3099 110.567 11.8719C111.141 12.4338 111.587 13.1406 111.905 13.9922C112.224 14.8381 112.384 15.8287 112.384 16.9642V17.9809H101.112V15.6868H108.898C108.898 15.1538 108.783 14.6816 108.551 14.2703C108.319 13.859 107.998 13.5374 107.586 13.3057C107.181 13.0682 106.709 12.9494 106.17 12.9494C105.608 12.9494 105.109 13.0798 104.675 13.3405C104.246 13.5954 103.91 13.9401 103.667 14.3746C103.424 14.8033 103.299 15.2812 103.294 15.8084V17.9896C103.294 18.6501 103.415 19.2207 103.659 19.7016C103.908 20.1824 104.259 20.5532 104.71 20.8138C105.162 21.0746 105.698 21.205 106.318 21.205C106.729 21.205 107.106 21.147 107.447 21.0312C107.789 20.9153 108.082 20.7415 108.325 20.5098C108.569 20.278 108.754 19.9941 108.881 19.6581L112.305 19.884C112.131 20.7067 111.775 21.4251 111.236 22.0391C110.703 22.6475 110.014 23.1225 109.168 23.4643C108.328 23.8004 107.357 23.9684 106.257 23.9684ZM118.501 5.91056V23.7076H114.799V5.91056H118.501Z" fill="#333333"/>
<path id="Vector_2" d="M55.9474 33.3944L54.3552 33.845C54.2552 33.5797 54.1074 33.3218 53.9122 33.0715C53.7219 32.8161 53.4615 32.6058 53.1311 32.4406C52.8007 32.2754 52.3776 32.1928 51.8619 32.1928C51.156 32.1928 50.5676 32.3555 50.097 32.681C49.6314 33.0014 49.3985 33.4094 49.3985 33.9051C49.3985 34.3457 49.5588 34.6937 49.8792 34.949C50.1996 35.2044 50.7003 35.4172 51.3812 35.5874L53.0936 36.008C54.1249 36.2583 54.8935 36.6413 55.3992 37.157C55.9049 37.6677 56.1577 38.3261 56.1577 39.1322C56.1577 39.7931 55.9675 40.3839 55.587 40.9046C55.2115 41.4254 54.6858 41.8359 54.0098 42.1363C53.3339 42.4367 52.5478 42.5869 51.6516 42.5869C50.475 42.5869 49.5011 42.3316 48.7301 41.8209C47.9591 41.3102 47.4709 40.5641 47.2656 39.5829L48.9479 39.1622C49.1081 39.7831 49.411 40.2487 49.8567 40.5591C50.3073 40.8696 50.8956 41.0248 51.6216 41.0248C52.4477 41.0248 53.1036 40.8495 53.5892 40.4991C54.0799 40.1436 54.3252 39.718 54.3252 39.2223C54.3252 38.8218 54.185 38.4863 53.9047 38.216C53.6243 37.9406 53.1937 37.7353 52.6129 37.6002L50.6903 37.1495C49.6338 36.8992 48.8578 36.5112 48.3621 35.9855C47.8715 35.4547 47.6261 34.7913 47.6261 33.9952C47.6261 33.3444 47.8088 32.7686 48.1744 32.2679C48.5449 31.7672 49.048 31.3742 49.6839 31.0888C50.3248 30.8034 51.0508 30.6607 51.8619 30.6607C53.0034 30.6607 53.8997 30.911 54.5505 31.4117C55.2064 31.9124 55.6721 32.5733 55.9474 33.3944ZM63.8425 30.8109V32.3129H57.8644V30.8109H63.8425ZM59.6068 28.0471H61.3792V39.0421C61.3792 39.5427 61.4518 39.9183 61.597 40.1687C61.7472 40.4139 61.9375 40.5792 62.1677 40.6643C62.4031 40.7444 62.6509 40.7845 62.9113 40.7845C63.1065 40.7845 63.2668 40.7745 63.392 40.7544C63.5171 40.7294 63.6173 40.7093 63.6923 40.6944L64.0528 42.2865C63.9326 42.3316 63.7649 42.3766 63.5497 42.4217C63.3343 42.4718 63.0615 42.4968 62.731 42.4968C62.2304 42.4968 61.7397 42.3891 61.2591 42.1739C60.7834 41.9586 60.3879 41.6306 60.0724 41.19C59.762 40.7494 59.6068 40.1937 59.6068 39.5228V28.0471ZM73.7786 37.6302V30.8109H75.5512V42.3466H73.7786V40.3939H73.6586C73.3881 40.9797 72.9672 41.4779 72.3966 41.8884C71.8259 42.294 71.1049 42.4968 70.2338 42.4968C69.5127 42.4968 68.8719 42.3391 68.3111 42.0237C67.7504 41.7032 67.3098 41.2225 66.9894 40.5817C66.6689 39.9358 66.5087 39.1222 66.5087 38.1408V30.8109H68.2811V38.0207C68.2811 38.8619 68.5164 39.5328 68.987 40.0334C69.4627 40.5341 70.0685 40.7845 70.8048 40.7845C71.2454 40.7845 71.6932 40.6718 72.1487 40.4465C72.6091 40.2212 72.9947 39.8757 73.3055 39.4101C73.6211 38.9444 73.7786 38.3511 73.7786 37.6302ZM83.1529 42.5869C82.1918 42.5869 81.3429 42.3441 80.607 41.8584C79.8711 41.3677 79.2956 40.6768 78.8796 39.7856C78.4644 38.8894 78.2567 37.8305 78.2567 36.6088C78.2567 35.3971 78.4644 34.3457 78.8796 33.4545C79.2956 32.5633 79.874 31.8749 80.6148 31.3892C81.3556 30.9035 82.2122 30.6607 83.1833 30.6607C83.934 30.6607 84.5272 30.7859 84.9629 31.0362C85.4036 31.2815 85.7391 31.562 85.9693 31.8773C86.2052 32.1878 86.3874 32.4431 86.518 32.6434H86.6677V26.9657H88.4403V42.3466H86.7278V40.5742H86.518C86.3874 40.7845 86.2024 41.0498 85.9622 41.3703C85.7214 41.6857 85.3789 41.9686 84.9333 42.2189C84.4877 42.4643 83.8944 42.5869 83.1529 42.5869ZM83.3937 40.9947C84.1042 40.9947 84.7052 40.8095 85.196 40.439C85.6868 40.0635 86.0597 39.5453 86.3146 38.8844C86.5703 38.2184 86.6981 37.4499 86.6981 36.5788C86.6981 35.7176 86.5731 34.9641 86.3224 34.3182C86.0724 33.6673 85.7016 33.1616 85.2108 32.8011C84.72 32.4356 84.1148 32.2528 83.3937 32.2528C82.6423 32.2528 82.0166 32.4456 81.5159 32.8312C81.0201 33.2117 80.6473 33.7299 80.3973 34.3858C80.1515 35.0367 80.0286 35.7677 80.0286 36.5788C80.0286 37.3999 80.1543 38.1459 80.4043 38.8168C80.66 39.4827 81.035 40.0134 81.5307 40.409C82.0314 40.7995 82.6522 40.9947 83.3937 40.9947ZM91.9326 42.3466V30.8109H93.7052V42.3466H91.9326ZM92.8337 28.8883C92.4884 28.8883 92.1903 28.7706 91.9403 28.5353C91.6946 28.3 91.5724 28.0171 91.5724 27.6867C91.5724 27.3562 91.6946 27.0733 91.9403 26.838C92.1903 26.6027 92.4884 26.485 92.8337 26.485C93.179 26.485 93.4749 26.6027 93.72 26.838C93.9707 27.0733 94.0957 27.3562 94.0957 27.6867C94.0957 28.0171 93.9707 28.3 93.72 28.5353C93.4749 28.7706 93.179 28.8883 92.8337 28.8883ZM101.637 42.5869C100.596 42.5869 99.6826 42.3391 98.8966 41.8434C98.1155 41.3478 97.5046 40.6543 97.0639 39.7631C96.6282 38.8718 96.4107 37.8305 96.4107 36.6389C96.4107 35.4372 96.6282 34.3883 97.0639 33.492C97.5046 32.5959 98.1155 31.8999 98.8966 31.4042C99.6826 30.9086 100.596 30.6607 101.637 30.6607C102.679 30.6607 103.59 30.9086 104.371 31.4042C105.157 31.8999 105.768 32.5959 106.204 33.492C106.644 34.3883 106.865 35.4372 106.865 36.6389C106.865 37.8305 106.644 38.8718 106.204 39.7631C105.768 40.6543 105.157 41.3478 104.371 41.8434C103.59 42.3391 102.679 42.5869 101.637 42.5869ZM101.637 40.9947C102.429 40.9947 103.079 40.792 103.59 40.3864C104.101 39.9809 104.479 39.4476 104.724 38.7867C104.97 38.1259 105.092 37.4099 105.092 36.6389C105.092 35.8677 104.97 35.1493 104.724 34.4834C104.479 33.8175 104.101 33.2793 103.59 32.8687C103.079 32.4581 102.429 32.2528 101.637 32.2528C100.846 32.2528 100.196 32.4581 99.6847 32.8687C99.1741 33.2793 98.7963 33.8175 98.5512 34.4834C98.3055 35.1493 98.1833 35.8677 98.1833 36.6389C98.1833 37.4099 98.3055 38.1259 98.5512 38.7867C98.7963 39.4476 99.1741 39.9809 99.6847 40.3864C100.196 40.792 100.846 40.9947 101.637 40.9947ZM117.741 33.3944L116.149 33.845C116.049 33.5797 115.902 33.3218 115.706 33.0715C115.516 32.8161 115.255 32.6058 114.925 32.4406C114.595 32.2754 114.171 32.1928 113.656 32.1928C112.95 32.1928 112.362 32.3555 111.891 32.681C111.426 33.0014 111.192 33.4094 111.192 33.9051C111.192 34.3457 111.353 34.6937 111.673 34.949C111.993 35.2044 112.494 35.4172 113.176 35.5874L114.887 36.008C115.919 36.2583 116.688 36.6413 117.193 37.157C117.699 37.6677 117.952 38.3261 117.952 39.1322C117.952 39.7931 117.762 40.3839 117.381 40.9046C117.005 41.4254 116.48 41.8359 115.804 42.1363C115.128 42.4367 114.342 42.5869 113.445 42.5869C112.269 42.5869 111.295 42.3316 110.524 41.8209C109.753 41.3102 109.265 40.5641 109.06 39.5829L110.742 39.1622C110.902 39.7831 111.205 40.2487 111.651 40.5591C112.101 40.8696 112.69 41.0248 113.416 41.0248C114.242 41.0248 114.897 40.8495 115.383 40.4991C115.874 40.1436 116.119 39.718 116.119 39.2223C116.119 38.8218 115.979 38.4863 115.699 38.216C115.418 37.9406 114.988 37.7353 114.407 37.6002L112.484 37.1495C111.428 36.8992 110.652 36.5112 110.156 35.9855C109.666 35.4547 109.42 34.7913 109.42 33.9952C109.42 33.3444 109.603 32.7686 109.969 32.2679C110.339 31.7672 110.842 31.3742 111.478 31.0888C112.119 30.8034 112.845 30.6607 113.656 30.6607C114.798 30.6607 115.694 30.911 116.344 31.4117C117 31.9124 117.466 32.5733 117.741 33.3944Z" fill="#333333"/>
<path id="Vector_3" d="M0 43.2829V33.991H3.23885V40.044H33.921V9.36117H20.9775V6.1225H37.1599V43.2829H0Z" fill="#333333"/>
<path id="Vector_4" d="M0 30.1187V6.1225H17.1053V9.36117H3.23885V30.1187H0Z" fill="#FEBF0F"/>
<path id="Vector_5" d="M6.21484 20.8017V17.5631H13.7194L11.3884 20.8017H6.21484Z" fill="#FEBF0F"/>
</g>
</svg>
