<svg width="240" height="157" viewBox="0 0 240 157" fill="none" xmlns="http://www.w3.org/2000/svg">
<path d="M39.605 137.108C-5.25246 111.209 -5.25246 69.2201 39.605 43.3223C84.4625 17.424 157.19 17.424 202.048 43.3223C246.905 69.2206 246.905 111.21 202.048 137.108C157.19 163.007 84.4625 163.007 39.605 137.108Z" fill="#FAFAFA"/>
<path d="M230.151 25.5492C225.284 26.0441 219.514 35.0987 218.073 43.3484C216.942 49.8579 216.958 54.6979 217.447 59.1137L219.503 60.3047L220.101 60.6528L221.765 61.6153L223.239 62.4691L223.533 62.6377L223.674 59.8153C223.669 59.8098 223.669 59.8098 223.674 59.8044V59.7609C223.674 59.7555 223.674 59.7554 223.674 59.7554L223.696 59.3422C223.326 55.2363 225.757 49.673 228.449 44.6808C230.249 41.3417 232.163 38.2528 233.441 36.0123C236.628 30.4218 234.687 25.0815 230.151 25.5492Z" fill="#E0E0E0"/>
<path d="M231.136 28.959C225.132 33.7447 219.215 46.4646 220.102 60.6529L219.504 60.3048C218.731 46.073 224.719 33.3259 230.771 28.5022C230.902 28.3989 231.081 28.4207 231.185 28.5512C231.283 28.6763 231.261 28.8612 231.136 28.959Z" fill="white"/>
<path d="M223.794 62.7898H223.8L225.833 63.9754C226.54 61.8599 227.775 59.3747 229.602 56.9057C233.159 52.1147 238.532 48.6342 239.037 45.6758C239.636 42.1247 236.949 39.9766 232.229 41.8637C231.136 42.3042 229.472 43.4299 228.449 44.6806C225.502 48.3025 222.163 53.4416 221.766 61.6152L223.239 62.469L223.533 62.6376L223.794 62.7898Z" fill="#F0F0F0"/>
<path d="M223.793 62.79H223.799C224.952 52.2834 231.211 46.4646 234.632 44.7733C234.779 44.7026 234.838 44.5286 234.768 44.3817C234.697 44.2349 234.528 44.1751 234.376 44.2512C230.95 45.9371 225.528 50.9239 223.674 59.8045C223.668 59.8099 223.668 59.8099 223.674 59.8153C223.489 60.6637 223.342 61.5501 223.239 62.4692L223.532 62.6378L223.793 62.79Z" fill="white"/>
<path d="M32.9848 52.4628L31.4295 53.3655L27.911 55.4049C27.9164 48.0144 25.4366 41.581 22.5381 36.3821C20.1561 32.1131 17.4968 28.6707 15.6968 26.2018C11.542 20.5025 17.8177 17.517 22.8535 20.1762C27.8947 22.841 31.7721 29.2091 33.1099 37.312C34.067 43.1309 33.4199 49.3957 32.9848 52.4628Z" fill="#E0E0E0"/>
<path d="M30.7786 53.3155C30.7987 53.3204 30.8193 53.3231 30.8405 53.3231C31.008 53.3269 31.1467 53.1942 31.15 53.0262C31.5241 35.4962 26.1224 26.4459 19.6036 21.6592C19.4698 21.5592 19.2789 21.5896 19.1794 21.7239C19.0805 21.8594 19.1093 22.0486 19.2441 22.1481C25.6748 26.8701 30.9118 35.7333 30.5436 53.0132C30.5409 53.16 30.6415 53.2845 30.7786 53.3155Z" fill="white"/>
<path d="M31.4286 53.3655L27.9101 55.4048L26.2079 56.3946L25.7511 56.6556L20.8295 59.5052C18.7522 58.5807 17.844 57.4985 17.5068 55.7964C17.2077 54.2737 17.4252 52.5335 16.4355 51.3371C15.7992 50.5866 14.8312 50.2657 13.9067 50.0591C13.5967 49.9884 13.2813 49.8905 12.9713 49.7817C12.3514 49.4881 11.7097 49.2433 11.1278 48.8844C10.4208 48.4602 9.77913 47.824 9.61054 47.0191C9.20812 45.094 11.5737 43.4299 11.2583 41.4885C11.1006 40.5259 10.3175 39.8081 9.6051 39.1501C8.88726 38.4866 8.14223 37.7089 8.09329 36.7355C8.04434 35.8491 8.60991 35.0279 9.32776 34.5113C10.6112 33.5977 12.297 33.5487 13.7599 33.9892C15.2663 34.446 16.5932 35.3814 18.0343 35.9905C19.4591 36.5887 21.0144 36.0612 22.5371 36.382C22.5589 36.382 22.5861 36.3875 22.6078 36.3929C24.0979 36.7246 25.6641 37.3174 26.197 38.9108C26.7245 40.4824 26.0611 42.3804 26.9747 43.7617C27.9916 45.3061 30.1506 45.5998 31.2328 47.1442C32.538 49.0041 32.4238 51.4077 31.4286 53.3655Z" fill="#F0F0F0"/>
<path d="M26.2071 56.3946L25.7503 56.6557C26.0929 52.0713 24.8802 48.3135 23.0149 45.3225C17.5386 42.9623 13.1881 45.4095 13.1446 45.4312C13.1065 45.4584 13.063 45.4639 13.0195 45.4639C12.9488 45.4584 12.8835 45.4204 12.8455 45.3551C12.7857 45.2464 12.8237 45.1158 12.9271 45.056C12.9706 45.0288 17.196 42.6578 22.5962 44.6917C18.9852 39.3677 13.3567 36.6322 11.3989 36.0939C11.2793 36.0612 11.214 35.9362 11.2467 35.822C11.2793 35.7023 11.3989 35.6371 11.5131 35.6697C13.5851 36.2353 19.6378 39.1991 23.3086 44.9853C23.3412 45.0125 23.363 45.0451 23.3738 45.0778C25.2554 48.0742 26.4845 51.8266 26.2071 56.3946Z" fill="white"/>
<path d="M200.088 34.731L208.729 39.7478L209.005 69.468L202.27 65.5645L179.262 114.388L165.938 122.08L157.298 117.064L187.806 52.3655L180.958 45.7765L200.088 34.731Z" fill="#455A64"/>
<path d="M208.728 39.7477L189.598 50.7933L196.446 57.3822L165.938 122.08L179.262 114.388L203.107 63.7927L209.005 69.468L208.728 39.7477Z" fill="#37474F"/>
<path d="M196.445 57.3822L189.598 50.7933L180.958 45.7766L187.805 52.3655L196.445 57.3822Z" fill="#263238"/>
<path d="M202.27 65.5645L203.106 63.7927L209.005 69.468L202.27 65.5645Z" fill="#263238"/>
<path d="M67.7205 35.1497L79.6535 42.078L80.0353 83.1249L70.7332 77.7341L62.1643 95.8732L43.7636 106.497L31.8306 99.5684L50.756 59.5052L41.2985 50.4044L67.7205 35.1497Z" fill="#FFBF00"/>
<path opacity="0.8" d="M67.7205 35.1497L79.6535 42.078L80.0353 83.1249L70.7332 77.7341L62.1643 95.8732L43.7636 106.497L31.8306 99.5684L50.756 59.5052L41.2985 50.4044L67.7205 35.1497Z" fill="white"/>
<path d="M79.6531 42.078L53.2316 57.3332L62.6887 66.4335L43.7632 106.497L62.1639 95.8732L71.889 75.2864L80.0349 83.125L79.6531 42.078Z" fill="#FFBF00"/>
<path opacity="0.6" d="M79.6531 42.078L53.2316 57.3332L62.6887 66.4335L43.7632 106.497L62.1639 95.8732L71.889 75.2864L80.0349 83.125L79.6531 42.078Z" fill="white"/>
<path opacity="0.6" d="M62.6885 66.4336L53.2314 57.3333L41.2979 50.4045L50.7554 59.5054L62.6885 66.4336Z" fill="#FFBF00"/>
<path opacity="0.6" d="M70.7329 77.7341L71.8891 75.2863L80.035 83.1249L70.7329 77.7341Z" fill="#FFBF00"/>
<path d="M127.673 0L173.886 26.7826L174.556 98.8495L158.226 89.3849L143.318 120.949L111.011 139.601L64.7979 112.819L97.8882 42.7616L81.2832 26.7837L127.673 0Z" fill="#FFBF00"/>
<path d="M173.887 26.7825L127.498 53.5662L144.103 69.5442L111.012 139.601L143.319 120.949L160.256 85.0876L174.558 98.8495L173.887 26.7825Z" fill="#FFBF00"/>
<path opacity="0.3" d="M127.497 53.5662L81.2837 26.7837L127.673 0L173.886 26.7826L127.497 53.5662Z" fill="white"/>
<path opacity="0.2" d="M97.8882 42.7617L144.101 69.5442L111.011 139.601L64.7979 112.819L97.8882 42.7617Z" fill="white"/>
<path opacity="0.2" d="M144.102 69.5442L127.497 53.5663L81.2837 26.7837L97.8887 42.7616L144.102 69.5442Z" fill="black"/>
<path opacity="0.2" d="M158.226 89.3849L160.256 85.0876L174.557 98.8495L158.226 89.3849Z" fill="black"/>
<path d="M150.83 145.761C150.35 145.761 149.92 145.406 149.83 144.934L149.509 143.241C148.782 143.114 148.078 142.944 147.414 142.737C147.41 142.736 147.386 142.732 147.349 142.732C147.29 142.732 147.244 142.741 147.231 142.746L144.524 144.001C144.37 144.072 144.191 144.109 144.003 144.109C143.771 144.109 143.544 144.052 143.366 143.948L140.691 142.404C140.431 142.255 140.274 142.008 140.26 141.728C140.246 141.449 140.377 141.188 140.622 141.012L142.453 139.695C142.216 139.405 142.011 139.103 141.843 138.794L138.298 138.568C137.788 138.536 137.389 138.111 137.389 137.6V135.611C137.389 135.101 137.788 134.676 138.298 134.643L141.863 134.418C142.015 134.109 142.216 133.807 142.453 133.517L140.622 132.199C140.379 132.025 140.246 131.763 140.261 131.484C140.274 131.208 140.436 130.955 140.692 130.807L143.367 129.263C143.546 129.16 143.771 129.103 144.004 129.103C144.192 129.103 144.372 129.141 144.525 129.211L147.236 130.467C147.244 130.47 147.29 130.48 147.349 130.48C147.386 130.48 147.41 130.476 147.416 130.475C148.08 130.267 148.785 130.098 149.509 129.971L149.831 128.279C149.92 127.807 150.349 127.451 150.83 127.451H154.764C155.243 127.451 155.673 127.807 155.763 128.279L156.085 129.971C156.812 130.098 157.516 130.268 158.179 130.475C158.183 130.476 158.207 130.48 158.244 130.48C158.303 130.48 158.35 130.471 158.362 130.466L161.069 129.211C161.221 129.141 161.402 129.103 161.59 129.103C161.822 129.103 162.047 129.16 162.226 129.262L164.902 130.807C165.161 130.957 165.319 131.203 165.333 131.482C165.347 131.762 165.215 132.023 164.972 132.199L163.141 133.517C163.378 133.807 163.582 134.109 163.75 134.418L167.295 134.643C167.806 134.677 168.204 135.102 168.204 135.611L168.205 137.6C168.205 138.109 167.806 138.534 167.297 138.568L163.731 138.794C163.578 139.103 163.377 139.405 163.141 139.695L164.972 141.012C165.216 141.188 165.347 141.449 165.333 141.728C165.319 142.008 165.162 142.255 164.902 142.405L162.227 143.949C162.049 144.052 161.823 144.109 161.59 144.109C161.403 144.109 161.223 144.072 161.07 144.001L158.358 142.745C158.35 142.742 158.304 142.732 158.245 142.732C158.208 142.732 158.184 142.735 158.178 142.737C157.518 142.943 156.814 143.113 156.085 143.241L155.764 144.933C155.673 145.406 155.243 145.761 154.764 145.761L150.83 145.761ZM152.797 133.531C151.196 133.531 149.7 133.885 148.585 134.529C147.576 135.112 147.02 135.85 147.02 136.607C147.02 137.364 147.575 138.101 148.585 138.684C149.7 139.327 151.196 139.682 152.797 139.682C154.398 139.682 155.893 139.328 157.009 138.684C158.017 138.101 158.574 137.364 158.574 136.607C158.574 135.85 158.018 135.112 157.009 134.529C155.893 133.885 154.397 133.531 152.797 133.531Z" fill="#E0E0E0"/>
<path d="M140.873 129.177L140.873 129.178L140.879 131.5L140.88 131.499C140.881 131.562 140.915 131.625 140.986 131.677L142.21 132.557C142.116 132.629 142.005 132.682 141.901 132.688L138.336 132.914C138.152 132.925 138.002 133.085 138.002 133.269V135.258C138.002 135.261 138.004 135.264 138.004 135.267L138.008 137.576C138.008 137.761 138.157 137.919 138.342 137.931L141.907 138.157C142.009 138.164 142.117 138.214 142.21 138.283L140.979 139.169C140.908 139.22 140.874 139.283 140.873 139.346H140.872L140.879 141.672C140.881 141.739 140.923 141.803 141.003 141.85L143.678 143.395C143.838 143.487 144.103 143.498 144.271 143.421L146.982 142.165C147.149 142.087 147.426 142.073 147.602 142.128C148.278 142.339 148.984 142.505 149.708 142.628C149.889 142.659 150.065 142.828 150.099 143.009L150.438 144.796C150.473 144.977 150.65 145.124 150.834 145.124H154.767C154.952 145.124 155.129 144.977 155.163 144.796L155.503 143.009C155.537 142.828 155.713 142.659 155.895 142.628C156.618 142.505 157.324 142.339 158 142.128C158.175 142.073 158.453 142.088 158.62 142.165L161.331 143.421C161.498 143.498 161.764 143.487 161.923 143.395L164.598 141.85C164.681 141.802 164.721 141.736 164.722 141.668H164.724L164.717 139.347H164.716C164.716 139.285 164.681 139.221 164.61 139.17L163.386 138.289C163.48 138.217 163.591 138.165 163.696 138.158L167.26 137.932C167.444 137.921 167.594 137.762 167.594 137.577L167.588 134.788C167.588 134.787 167.588 134.786 167.588 134.785V133.27C167.588 133.085 167.439 132.927 167.254 132.915L163.69 132.689C163.588 132.682 163.479 132.632 163.386 132.563L164.617 131.677C164.689 131.625 164.724 131.561 164.723 131.497L164.724 131.498L164.718 129.179H164.716C164.716 129.111 164.675 129.045 164.592 128.997L161.917 127.452C161.757 127.361 161.492 127.349 161.325 127.426L158.613 128.682C158.446 128.76 158.169 128.774 157.993 128.719C157.317 128.508 156.611 128.342 155.888 128.219C155.706 128.188 155.53 128.019 155.496 127.838L155.157 126.051C155.122 125.87 154.945 125.723 154.761 125.723H150.828C150.644 125.723 150.466 125.87 150.432 126.051L150.093 127.838C150.058 128.019 149.882 128.188 149.701 128.219C148.977 128.342 148.271 128.508 147.595 128.719C147.419 128.774 147.142 128.759 146.975 128.682L144.264 127.426C144.097 127.349 143.832 127.36 143.672 127.452L140.997 128.997C140.916 129.044 140.874 129.11 140.873 129.177ZM157.315 136.873C154.819 138.314 150.772 138.313 148.276 136.873C147.3 136.309 146.708 135.609 146.495 134.878C146.765 134.283 147.362 133.702 148.277 133.173C150.773 131.732 154.82 131.732 157.316 133.173C158.292 133.736 158.864 134.364 159.056 135.005C158.814 135.689 158.234 136.342 157.315 136.873Z" fill="#FFBF00"/>
<path opacity="0.2" d="M140.873 129.177L140.873 129.178L140.879 131.5L140.88 131.499C140.881 131.562 140.915 131.625 140.986 131.677L142.21 132.557C142.116 132.629 142.005 132.682 141.901 132.688L138.336 132.914C138.152 132.925 138.002 133.085 138.002 133.269V135.258C138.002 135.261 138.004 135.264 138.004 135.267L138.008 137.576C138.008 137.761 138.157 137.919 138.342 137.931L141.907 138.157C142.009 138.164 142.117 138.214 142.21 138.283L140.979 139.169C140.908 139.22 140.874 139.283 140.873 139.346H140.872L140.879 141.672C140.881 141.739 140.923 141.803 141.003 141.85L143.678 143.395C143.838 143.487 144.103 143.498 144.271 143.421L146.982 142.165C147.149 142.087 147.426 142.073 147.602 142.128C148.278 142.339 148.984 142.505 149.708 142.628C149.889 142.659 150.065 142.828 150.099 143.009L150.438 144.796C150.473 144.977 150.65 145.124 150.834 145.124H154.767C154.952 145.124 155.129 144.977 155.163 144.796L155.503 143.009C155.537 142.828 155.713 142.659 155.895 142.628C156.618 142.505 157.324 142.339 158 142.128C158.175 142.073 158.453 142.088 158.62 142.165L161.331 143.421C161.498 143.498 161.764 143.487 161.923 143.395L164.598 141.85C164.681 141.802 164.721 141.736 164.722 141.668H164.724L164.717 139.347H164.716C164.716 139.285 164.681 139.221 164.61 139.17L163.386 138.289C163.48 138.217 163.591 138.165 163.696 138.158L167.26 137.932C167.444 137.921 167.594 137.762 167.594 137.577L167.588 134.788C167.588 134.787 167.588 134.786 167.588 134.785V133.27C167.588 133.085 167.439 132.927 167.254 132.915L163.69 132.689C163.588 132.682 163.479 132.632 163.386 132.563L164.617 131.677C164.689 131.625 164.724 131.561 164.723 131.497L164.724 131.498L164.718 129.179H164.716C164.716 129.111 164.675 129.045 164.592 128.997L161.917 127.452C161.757 127.361 161.492 127.349 161.325 127.426L158.613 128.682C158.446 128.76 158.169 128.774 157.993 128.719C157.317 128.508 156.611 128.342 155.888 128.219C155.706 128.188 155.53 128.019 155.496 127.838L155.157 126.051C155.122 125.87 154.945 125.723 154.761 125.723H150.828C150.644 125.723 150.466 125.87 150.432 126.051L150.093 127.838C150.058 128.019 149.882 128.188 149.701 128.219C148.977 128.342 148.271 128.508 147.595 128.719C147.419 128.774 147.142 128.759 146.975 128.682L144.264 127.426C144.097 127.349 143.832 127.36 143.672 127.452L140.997 128.997C140.916 129.044 140.874 129.11 140.873 129.177ZM157.315 136.873C154.819 138.314 150.772 138.313 148.276 136.873C147.3 136.309 146.708 135.609 146.495 134.878C146.765 134.283 147.362 133.702 148.277 133.173C150.773 131.732 154.82 131.732 157.316 133.173C158.292 133.736 158.864 134.364 159.056 135.005C158.814 135.689 158.234 136.342 157.315 136.873Z" fill="white"/>
<path opacity="0.1" d="M162.452 137.208C162.327 137.344 162.341 137.536 162.491 137.643L163.384 138.286C163.478 138.213 163.591 138.163 163.697 138.157L167.262 137.932C167.446 137.92 167.594 137.761 167.596 137.576L167.59 134.788L167.589 135.258C167.59 135.443 167.442 135.601 167.257 135.613L163.692 135.838C163.508 135.85 163.298 135.995 163.21 136.158C163.014 136.517 162.762 136.868 162.452 137.208ZM164.72 129.203C164.709 129.258 164.674 129.312 164.613 129.359L162.492 130.883C162.342 130.991 162.328 131.181 162.453 131.318C162.761 131.658 163.015 132.009 163.211 132.369C163.249 132.44 163.313 132.51 163.387 132.564L164.618 131.677C164.69 131.624 164.726 131.561 164.724 131.499L164.726 131.497L164.72 129.203Z" fill="black"/>
<path opacity="0.1" d="M148.277 131.655C150.773 130.214 154.818 130.212 157.314 131.653C158.892 132.564 159.473 133.832 159.056 135.006C158.868 134.366 158.293 133.737 157.315 133.171C154.819 131.73 150.773 131.732 148.278 133.173C147.364 133.7 146.765 134.279 146.493 134.875C146.162 133.74 146.758 132.532 148.277 131.655Z" fill="black"/>
<path d="M138.009 137.578C138.009 137.76 138.158 137.919 138.343 137.931L141.908 138.158C141.965 138.161 142.025 138.181 142.083 138.208L142.079 135.886C142.02 135.859 141.958 135.84 141.899 135.838L138.335 135.614C138.167 135.601 138.029 135.466 138.005 135.304L138.009 137.578ZM140.878 131.502L140.881 131.501C140.879 131.562 140.916 131.626 140.987 131.679L142.213 132.559C142.284 132.503 142.342 132.436 142.381 132.368C142.569 132.026 142.808 131.688 143.1 131.365C143.112 131.349 143.124 131.333 143.14 131.318C143.173 131.28 143.197 131.239 143.211 131.195C143.215 131.181 143.218 131.166 143.221 131.15C143.225 131.12 143.223 131.091 143.218 131.061C143.21 131.014 143.187 130.97 143.152 130.93C143.139 130.913 143.12 130.896 143.1 130.883L140.98 129.359C140.96 129.346 140.947 129.332 140.932 129.317C140.91 129.296 140.894 129.272 140.889 129.248C140.878 129.224 140.873 129.199 140.875 129.177L140.873 129.178L140.878 131.502ZM140.879 141.673C140.881 141.739 140.924 141.802 141.005 141.849L143.679 143.393C143.789 143.458 143.948 143.481 144.092 143.464L144.089 141.148C143.944 141.164 143.783 141.139 143.674 141.075L140.997 139.531C140.923 139.486 140.881 139.429 140.872 139.367L140.879 141.673ZM158.355 142.101C158.45 142.11 158.547 142.13 158.62 142.163L161.331 143.42C161.402 143.452 161.487 143.463 161.574 143.467L161.568 141.152C161.48 141.152 161.394 141.134 161.326 141.101L158.615 139.845C158.542 139.811 158.447 139.79 158.348 139.78L158.355 142.101ZM150.492 144.925C150.565 145.041 150.696 145.122 150.837 145.123L154.768 145.124C154.855 145.122 154.937 145.09 155.006 145.038L155.004 142.718C154.935 142.773 154.85 142.804 154.763 142.806L150.828 142.804C150.699 142.806 150.575 142.732 150.499 142.627L150.492 144.925Z" fill="#FFBF00"/>
<path opacity="0.7" d="M138.009 137.578C138.009 137.76 138.158 137.919 138.343 137.931L141.908 138.158C141.965 138.161 142.025 138.181 142.083 138.208L142.079 135.886C142.02 135.859 141.958 135.84 141.899 135.838L138.335 135.614C138.167 135.601 138.029 135.466 138.005 135.304L138.009 137.578ZM140.878 131.502L140.881 131.501C140.879 131.562 140.916 131.626 140.987 131.679L142.213 132.559C142.284 132.503 142.342 132.436 142.381 132.368C142.569 132.026 142.808 131.688 143.1 131.365C143.112 131.349 143.124 131.333 143.14 131.318C143.173 131.28 143.197 131.239 143.211 131.195C143.215 131.181 143.218 131.166 143.221 131.15C143.225 131.12 143.223 131.091 143.218 131.061C143.21 131.014 143.187 130.97 143.152 130.93C143.139 130.913 143.12 130.896 143.1 130.883L140.98 129.359C140.96 129.346 140.947 129.332 140.932 129.317C140.91 129.296 140.894 129.272 140.889 129.248C140.878 129.224 140.873 129.199 140.875 129.177L140.873 129.178L140.878 131.502ZM140.879 141.673C140.881 141.739 140.924 141.802 141.005 141.849L143.679 143.393C143.789 143.458 143.948 143.481 144.092 143.464L144.089 141.148C143.944 141.164 143.783 141.139 143.674 141.075L140.997 139.531C140.923 139.486 140.881 139.429 140.872 139.367L140.879 141.673ZM158.355 142.101C158.45 142.11 158.547 142.13 158.62 142.163L161.331 143.42C161.402 143.452 161.487 143.463 161.574 143.467L161.568 141.152C161.48 141.152 161.394 141.134 161.326 141.101L158.615 139.845C158.542 139.811 158.447 139.79 158.348 139.78L158.355 142.101ZM150.492 144.925C150.565 145.041 150.696 145.122 150.837 145.123L154.768 145.124C154.855 145.122 154.937 145.09 155.006 145.038L155.004 142.718C154.935 142.773 154.85 142.804 154.763 142.806L150.828 142.804C150.699 142.806 150.575 142.732 150.499 142.627L150.492 144.925Z" fill="white"/>
<path d="M143.673 127.452L140.998 128.996C140.838 129.088 140.83 129.25 140.98 129.358L143.1 130.883C143.249 130.991 143.263 131.183 143.139 131.319C142.829 131.658 142.577 132.009 142.382 132.369C142.294 132.531 142.084 132.678 141.901 132.689L138.336 132.915C138.152 132.926 138.002 133.085 138.002 133.27V135.258C138.002 135.443 138.151 135.602 138.336 135.613L141.901 135.839C142.084 135.851 142.294 135.996 142.382 136.158C142.578 136.518 142.829 136.87 143.139 137.209C143.264 137.345 143.25 137.536 143.1 137.644L140.98 139.169C140.831 139.277 140.839 139.439 140.998 139.531L143.673 141.075C143.833 141.168 144.098 141.179 144.265 141.102L146.977 139.846C147.144 139.768 147.421 139.754 147.597 139.809C148.272 140.02 148.978 140.186 149.702 140.309C149.884 140.34 150.059 140.509 150.094 140.69L150.433 142.477C150.467 142.658 150.645 142.805 150.829 142.805H154.762C154.947 142.805 155.124 142.658 155.158 142.477L155.498 140.69C155.532 140.509 155.708 140.34 155.89 140.309C156.614 140.186 157.319 140.02 157.995 139.808C158.171 139.753 158.448 139.768 158.615 139.845L161.326 141.101C161.494 141.178 161.759 141.167 161.919 141.075L164.594 139.53C164.753 139.438 164.762 139.276 164.612 139.169L162.492 137.643C162.342 137.535 162.328 137.344 162.453 137.208C162.763 136.869 163.014 136.518 163.21 136.158C163.298 135.996 163.507 135.85 163.691 135.838L167.256 135.613C167.44 135.601 167.589 135.442 167.589 135.258V133.269C167.589 133.085 167.44 132.926 167.256 132.914L163.691 132.688C163.508 132.677 163.298 132.531 163.21 132.369C163.014 132.009 162.762 131.657 162.453 131.319C162.328 131.183 162.342 130.991 162.492 130.883L164.612 129.358C164.761 129.25 164.753 129.088 164.594 128.996L161.919 127.452C161.759 127.36 161.494 127.348 161.326 127.425L158.615 128.682C158.447 128.759 158.171 128.773 157.994 128.718C157.319 128.507 156.613 128.341 155.89 128.218C155.708 128.187 155.532 128.019 155.498 127.838L155.158 126.051C155.124 125.869 154.947 125.723 154.762 125.723H150.83C150.645 125.723 150.468 125.869 150.434 126.051L150.094 127.838C150.06 128.019 149.884 128.187 149.702 128.218C148.978 128.341 148.272 128.507 147.597 128.718C147.421 128.773 147.144 128.759 146.977 128.682L144.266 127.425C144.098 127.348 143.833 127.359 143.673 127.452ZM157.315 131.654C159.81 133.095 159.811 135.431 157.315 136.873C154.819 138.314 150.772 138.313 148.276 136.873C145.781 135.431 145.781 133.095 148.276 131.655C150.772 130.213 154.819 130.213 157.315 131.654Z" fill="#FFBF00"/>
<path opacity="0.55" d="M143.673 127.452L140.998 128.996C140.838 129.088 140.83 129.25 140.98 129.358L143.1 130.883C143.249 130.991 143.263 131.183 143.139 131.319C142.829 131.658 142.577 132.009 142.382 132.369C142.294 132.531 142.084 132.678 141.901 132.689L138.336 132.915C138.152 132.926 138.002 133.085 138.002 133.27V135.258C138.002 135.443 138.151 135.602 138.336 135.613L141.901 135.839C142.084 135.851 142.294 135.996 142.382 136.158C142.578 136.518 142.829 136.87 143.139 137.209C143.264 137.345 143.25 137.536 143.1 137.644L140.98 139.169C140.831 139.277 140.839 139.439 140.998 139.531L143.673 141.075C143.833 141.168 144.098 141.179 144.265 141.102L146.977 139.846C147.144 139.768 147.421 139.754 147.597 139.809C148.272 140.02 148.978 140.186 149.702 140.309C149.884 140.34 150.059 140.509 150.094 140.69L150.433 142.477C150.467 142.658 150.645 142.805 150.829 142.805H154.762C154.947 142.805 155.124 142.658 155.158 142.477L155.498 140.69C155.532 140.509 155.708 140.34 155.89 140.309C156.614 140.186 157.319 140.02 157.995 139.808C158.171 139.753 158.448 139.768 158.615 139.845L161.326 141.101C161.494 141.178 161.759 141.167 161.919 141.075L164.594 139.53C164.753 139.438 164.762 139.276 164.612 139.169L162.492 137.643C162.342 137.535 162.328 137.344 162.453 137.208C162.763 136.869 163.014 136.518 163.21 136.158C163.298 135.996 163.507 135.85 163.691 135.838L167.256 135.613C167.44 135.601 167.589 135.442 167.589 135.258V133.269C167.589 133.085 167.44 132.926 167.256 132.914L163.691 132.688C163.508 132.677 163.298 132.531 163.21 132.369C163.014 132.009 162.762 131.657 162.453 131.319C162.328 131.183 162.342 130.991 162.492 130.883L164.612 129.358C164.761 129.25 164.753 129.088 164.594 128.996L161.919 127.452C161.759 127.36 161.494 127.348 161.326 127.425L158.615 128.682C158.447 128.759 158.171 128.773 157.994 128.718C157.319 128.507 156.613 128.341 155.89 128.218C155.708 128.187 155.532 128.019 155.498 127.838L155.158 126.051C155.124 125.869 154.947 125.723 154.762 125.723H150.83C150.645 125.723 150.468 125.869 150.434 126.051L150.094 127.838C150.06 128.019 149.884 128.187 149.702 128.218C148.978 128.341 148.272 128.507 147.597 128.718C147.421 128.773 147.144 128.759 146.977 128.682L144.266 127.425C144.098 127.348 143.833 127.359 143.673 127.452ZM157.315 131.654C159.81 133.095 159.811 135.431 157.315 136.873C154.819 138.314 150.772 138.313 148.276 136.873C145.781 135.431 145.781 133.095 148.276 131.655C150.772 130.213 154.819 130.213 157.315 131.654Z" fill="white" stroke="white" stroke-width="0.4827" stroke-miterlimit="10"/>
<path d="M51.5904 137.873C50.971 137.873 50.4173 137.415 50.301 136.806L49.9932 135.183C49.2759 135.051 48.5787 134.88 47.918 134.674L45.0428 135.995C44.8503 136.085 44.6257 136.132 44.3924 136.132C44.1074 136.132 43.8268 136.061 43.6027 135.931L40.7814 134.302C40.4404 134.106 40.2262 133.766 40.2071 133.394C40.1881 133.022 40.3676 132.663 40.6868 132.433L42.4156 131.19C42.2497 130.971 42.1002 130.746 41.9691 130.517L38.3625 130.288C37.6996 130.247 37.1797 129.694 37.1797 129.029V126.933C37.1797 126.267 37.6996 125.714 38.363 125.673L41.9696 125.445C42.1002 125.216 42.2492 124.991 42.4156 124.772L40.6879 123.529C40.3681 123.298 40.1886 122.94 40.2071 122.568C40.2256 122.197 40.4393 121.858 40.7798 121.66L43.6022 120.031C43.8273 119.901 44.1085 119.83 44.394 119.83C44.6262 119.83 44.8503 119.877 45.0428 119.966L47.9022 121.291C48.5771 121.082 49.2759 120.911 49.9937 120.779L50.3015 119.157C50.4179 118.547 50.9715 118.089 51.5909 118.089H55.7381C56.3569 118.089 56.9111 118.547 57.0275 119.156L57.3358 120.779C58.0531 120.911 58.7497 121.083 59.4105 121.289L62.2862 119.967C62.4776 119.878 62.7028 119.831 62.9361 119.831C63.2221 119.831 63.5027 119.903 63.7268 120.032L66.547 121.66C66.8891 121.858 67.1034 122.198 67.1219 122.57C67.1403 122.941 66.9603 123.301 66.6406 123.53L64.9129 124.773C65.0793 124.992 65.2283 125.217 65.3593 125.446L68.9665 125.674C69.6299 125.718 70.1488 126.271 70.1488 126.934V129.03C70.1488 129.695 69.6289 130.248 68.9659 130.29L65.3593 130.518C65.2283 130.747 65.0793 130.972 64.9129 131.191L66.6406 132.433C66.9598 132.663 67.1403 133.022 67.1219 133.394C67.1034 133.766 66.8891 134.106 66.5476 134.303L63.7262 135.932C63.5022 136.061 63.2216 136.133 62.9355 136.133C62.7022 136.133 62.4771 136.086 62.2846 135.995L59.4268 134.672C58.7536 134.881 58.0542 135.052 57.3353 135.185L57.0269 136.807C56.9133 137.414 56.3586 137.874 55.7375 137.874H51.5904V137.873ZM53.6639 124.978C52.0173 124.978 50.4831 125.34 49.3428 125.998C48.371 126.559 47.813 127.282 47.813 127.981C47.813 128.679 48.371 129.402 49.3428 129.963C50.4831 130.621 52.0178 130.983 53.6645 130.983C55.3106 130.983 56.8453 130.621 57.9857 129.963C58.958 129.402 59.516 128.679 59.516 127.981C59.516 127.282 58.9586 126.559 57.9857 125.998C56.8458 125.339 55.3106 124.978 53.6639 124.978Z" fill="#E0E0E0"/>
<path d="M41.0938 120.222L41.0927 120.222L41.0992 122.67L41.1003 122.67C41.1009 122.736 41.1368 122.803 41.2123 122.857L42.5028 123.786C42.4039 123.861 42.2869 123.917 42.1765 123.924L38.4182 124.162C38.2241 124.173 38.0669 124.342 38.0669 124.536V126.633C38.0669 126.636 38.0685 126.639 38.0691 126.642L38.074 129.078C38.074 129.272 38.2311 129.439 38.4253 129.452L42.1836 129.689C42.2913 129.697 42.4055 129.749 42.5034 129.822L41.2058 130.756C41.1308 130.81 41.0943 130.877 41.0938 130.943H41.0927L41.0998 133.395C41.1025 133.465 41.146 133.533 41.2314 133.582L44.0522 135.21C44.2202 135.308 44.4997 135.32 44.6765 135.239L47.5353 133.914C47.7115 133.832 48.0041 133.817 48.1896 133.875C48.902 134.097 49.6459 134.273 50.4094 134.402C50.6008 134.435 50.7863 134.613 50.8222 134.804L51.18 136.687C51.2165 136.878 51.403 137.033 51.5977 137.033H55.7448C55.9395 137.033 56.1261 136.878 56.1625 136.687L56.5203 134.804C56.5568 134.613 56.7422 134.435 56.9336 134.402C57.6966 134.273 58.4411 134.097 59.1535 133.875C59.3389 133.816 59.631 133.832 59.8072 133.914L62.666 135.239C62.8422 135.32 63.1217 135.308 63.2903 135.21L66.1106 133.582C66.1976 133.532 66.2411 133.462 66.2416 133.391H66.2427L66.2362 130.943H66.2351C66.2351 130.877 66.1987 130.81 66.1231 130.755L64.8326 129.827C64.9316 129.751 65.0485 129.696 65.1589 129.689L68.9172 129.451C69.1114 129.439 69.2685 129.271 69.2685 129.077L69.2626 126.136C69.2626 126.135 69.262 126.134 69.262 126.132V124.535C69.262 124.34 69.1049 124.173 68.9107 124.161L65.1524 123.923C65.0441 123.916 64.9305 123.863 64.8321 123.79L66.1296 122.856C66.2058 122.801 66.2422 122.732 66.2416 122.666L66.2427 122.667L66.2362 120.222H66.2351C66.2346 120.15 66.1911 120.08 66.1041 120.03L63.2838 118.401C63.1152 118.304 62.8357 118.292 62.6595 118.374L59.8001 119.698C59.6239 119.78 59.3313 119.795 59.1459 119.738C58.434 119.515 57.6895 119.339 56.9266 119.21C56.7351 119.177 56.5497 119 56.5133 118.809L56.1554 116.925C56.119 116.734 55.9325 116.579 55.7378 116.579H51.5906C51.3965 116.579 51.2094 116.734 51.1729 116.925L50.8151 118.809C50.7787 119 50.5932 119.178 50.4018 119.211C49.6388 119.34 48.8943 119.516 48.1819 119.738C47.9965 119.796 47.7045 119.781 47.5283 119.699L44.6694 118.374C44.4932 118.293 44.2137 118.305 44.0451 118.402L41.2243 120.031C41.1384 120.081 41.0949 120.15 41.0938 120.222ZM58.4297 128.335C55.7981 129.854 51.5313 129.854 48.8998 128.335C47.8709 127.74 47.246 127.002 47.022 126.232C47.3064 125.604 47.9356 124.991 48.9009 124.434C51.5324 122.915 55.7992 122.915 58.4308 124.434C59.4602 125.028 60.0633 125.69 60.2656 126.365C60.01 127.087 59.3993 127.775 58.4297 128.335Z" fill="#FFBF00"/>
<path opacity="0.2" d="M41.0938 120.222L41.0927 120.222L41.0992 122.67L41.1003 122.67C41.1009 122.736 41.1368 122.803 41.2123 122.857L42.5028 123.786C42.4039 123.861 42.2869 123.917 42.1765 123.924L38.4182 124.162C38.2241 124.173 38.0669 124.342 38.0669 124.536V126.633C38.0669 126.636 38.0685 126.639 38.0691 126.642L38.074 129.078C38.074 129.272 38.2311 129.439 38.4253 129.452L42.1836 129.689C42.2913 129.697 42.4055 129.749 42.5034 129.822L41.2058 130.756C41.1308 130.81 41.0943 130.877 41.0938 130.943H41.0927L41.0998 133.395C41.1025 133.465 41.146 133.533 41.2314 133.582L44.0522 135.21C44.2202 135.308 44.4997 135.32 44.6765 135.239L47.5353 133.914C47.7115 133.832 48.0041 133.817 48.1896 133.875C48.902 134.097 49.6459 134.273 50.4094 134.402C50.6008 134.435 50.7863 134.613 50.8222 134.804L51.18 136.687C51.2165 136.878 51.403 137.033 51.5977 137.033H55.7448C55.9395 137.033 56.1261 136.878 56.1625 136.687L56.5203 134.804C56.5568 134.613 56.7422 134.435 56.9336 134.402C57.6966 134.273 58.4411 134.097 59.1535 133.875C59.3389 133.816 59.631 133.832 59.8072 133.914L62.666 135.239C62.8422 135.32 63.1217 135.308 63.2903 135.21L66.1106 133.582C66.1976 133.532 66.2411 133.462 66.2416 133.391H66.2427L66.2362 130.943H66.2351C66.2351 130.877 66.1987 130.81 66.1231 130.755L64.8326 129.827C64.9316 129.751 65.0485 129.696 65.1589 129.689L68.9172 129.451C69.1114 129.439 69.2685 129.271 69.2685 129.077L69.2626 126.136C69.2626 126.135 69.262 126.134 69.262 126.132V124.535C69.262 124.34 69.1049 124.173 68.9107 124.161L65.1524 123.923C65.0441 123.916 64.9305 123.863 64.8321 123.79L66.1296 122.856C66.2058 122.801 66.2422 122.732 66.2416 122.666L66.2427 122.667L66.2362 120.222H66.2351C66.2346 120.15 66.1911 120.08 66.1041 120.03L63.2838 118.401C63.1152 118.304 62.8357 118.292 62.6595 118.374L59.8001 119.698C59.6239 119.78 59.3313 119.795 59.1459 119.738C58.434 119.515 57.6895 119.339 56.9266 119.21C56.7351 119.177 56.5497 119 56.5133 118.809L56.1554 116.925C56.119 116.734 55.9325 116.579 55.7378 116.579H51.5906C51.3965 116.579 51.2094 116.734 51.1729 116.925L50.8151 118.809C50.7787 119 50.5932 119.178 50.4018 119.211C49.6388 119.34 48.8943 119.516 48.1819 119.738C47.9965 119.796 47.7045 119.781 47.5283 119.699L44.6694 118.374C44.4932 118.293 44.2137 118.305 44.0451 118.402L41.2243 120.031C41.1384 120.081 41.0949 120.15 41.0938 120.222ZM58.4297 128.335C55.7981 129.854 51.5313 129.854 48.8998 128.335C47.8709 127.74 47.246 127.002 47.022 126.232C47.3064 125.604 47.9356 124.991 48.9009 124.434C51.5324 122.915 55.7992 122.915 58.4308 124.434C59.4602 125.028 60.0633 125.69 60.2656 126.365C60.01 127.087 59.3993 127.775 58.4297 128.335Z" fill="white"/>
<path opacity="0.1" d="M63.8454 128.688C63.7138 128.831 63.7285 129.033 63.8867 129.147L64.8275 129.825C64.927 129.748 65.0467 129.695 65.1576 129.688L68.9165 129.451C69.1101 129.438 69.2667 129.271 69.2684 129.075L69.2618 126.136L69.2607 126.632C69.2613 126.826 69.1052 126.993 68.9111 127.006L65.1522 127.243C64.958 127.256 64.7367 127.409 64.6443 127.581C64.4376 127.959 64.1722 128.33 63.8454 128.688ZM66.2366 120.248C66.2251 120.306 66.1876 120.363 66.1234 120.412L63.8878 122.02C63.7296 122.133 63.7143 122.334 63.8459 122.479C64.1711 122.838 64.4387 123.207 64.6453 123.586C64.6856 123.662 64.7536 123.735 64.8313 123.792L66.1294 122.857C66.2056 122.801 66.2436 122.734 66.2409 122.668L66.2431 122.667L66.2366 120.248Z" fill="black"/>
<path opacity="0.1" d="M48.9 122.834C51.5316 121.314 55.7973 121.313 58.4288 122.832C60.0924 123.793 60.7042 125.13 60.2653 126.368C60.0674 125.693 59.461 125.03 58.4294 124.433C55.7973 122.913 51.5321 122.915 48.9006 124.435C47.9369 124.991 47.3056 125.602 47.0195 126.231C46.6698 125.032 47.299 123.758 48.9 122.834Z" fill="black"/>
<path d="M38.0727 129.078C38.0721 129.27 38.2293 129.438 38.425 129.45L42.1839 129.689C42.2438 129.693 42.3068 129.714 42.3683 129.742L42.3639 127.294C42.3025 127.265 42.2372 127.245 42.1747 127.243L38.4169 127.006C38.2402 126.993 38.0939 126.85 38.0688 126.68L38.0727 129.078ZM41.0979 122.672L41.1001 122.67C41.099 122.735 41.1376 122.802 41.2116 122.858L42.5048 123.786C42.5793 123.727 42.6407 123.657 42.6826 123.584C42.8806 123.224 43.1318 122.868 43.4402 122.527C43.4527 122.51 43.4657 122.493 43.482 122.478C43.5168 122.438 43.5429 122.394 43.5576 122.348C43.5614 122.332 43.5658 122.317 43.5685 122.3C43.5728 122.269 43.5712 122.238 43.5652 122.206C43.556 122.157 43.5321 122.11 43.4951 122.068C43.4815 122.05 43.4619 122.032 43.4412 122.019L41.2056 120.411C41.1849 120.397 41.1703 120.383 41.1545 120.366C41.1322 120.344 41.1142 120.319 41.1093 120.294C41.0979 120.268 41.0925 120.242 41.0952 120.219L41.0925 120.22L41.0979 122.672ZM41.0996 133.396C41.1012 133.465 41.1463 133.532 41.2322 133.582L44.052 135.211C44.1678 135.278 44.3353 135.303 44.4881 135.285L44.4843 132.843C44.3315 132.861 44.1629 132.834 44.0471 132.766L41.2252 131.139C41.1469 131.092 41.1023 131.031 41.093 130.966L41.0996 133.396ZM59.5253 133.848C59.6264 133.856 59.7281 133.878 59.8059 133.913L62.6642 135.238C62.7381 135.273 62.8279 135.285 62.9203 135.289L62.9138 132.848C62.8208 132.847 62.7305 132.829 62.6587 132.793L59.8004 131.468C59.7227 131.433 59.6231 131.41 59.5187 131.401L59.5253 133.848ZM51.2347 136.825C51.3114 136.947 51.4506 137.033 51.598 137.034L55.743 137.035C55.8349 137.033 55.9208 136.999 55.9942 136.944L55.9915 134.498C55.9192 134.555 55.8295 134.588 55.7381 134.59L51.5893 134.588C51.4528 134.59 51.3217 134.512 51.2418 134.402L51.2347 136.825Z" fill="#FFBF00"/>
<path opacity="0.7" d="M38.0727 129.078C38.0721 129.27 38.2293 129.438 38.425 129.45L42.1839 129.689C42.2438 129.693 42.3068 129.714 42.3683 129.742L42.3639 127.294C42.3025 127.265 42.2372 127.245 42.1747 127.243L38.4169 127.006C38.2402 126.993 38.0939 126.85 38.0688 126.68L38.0727 129.078ZM41.0979 122.672L41.1001 122.67C41.099 122.735 41.1376 122.802 41.2116 122.858L42.5048 123.786C42.5793 123.727 42.6407 123.657 42.6826 123.584C42.8806 123.224 43.1318 122.868 43.4402 122.527C43.4527 122.51 43.4657 122.493 43.482 122.478C43.5168 122.438 43.5429 122.394 43.5576 122.348C43.5614 122.332 43.5658 122.317 43.5685 122.3C43.5728 122.269 43.5712 122.238 43.5652 122.206C43.556 122.157 43.5321 122.11 43.4951 122.068C43.4815 122.05 43.4619 122.032 43.4412 122.019L41.2056 120.411C41.1849 120.397 41.1703 120.383 41.1545 120.366C41.1322 120.344 41.1142 120.319 41.1093 120.294C41.0979 120.268 41.0925 120.242 41.0952 120.219L41.0925 120.22L41.0979 122.672ZM41.0996 133.396C41.1012 133.465 41.1463 133.532 41.2322 133.582L44.052 135.211C44.1678 135.278 44.3353 135.303 44.4881 135.285L44.4843 132.843C44.3315 132.861 44.1629 132.834 44.0471 132.766L41.2252 131.139C41.1469 131.092 41.1023 131.031 41.093 130.966L41.0996 133.396ZM59.5253 133.848C59.6264 133.856 59.7281 133.878 59.8059 133.913L62.6642 135.238C62.7381 135.273 62.8279 135.285 62.9203 135.289L62.9138 132.848C62.8208 132.847 62.7305 132.829 62.6587 132.793L59.8004 131.468C59.7227 131.433 59.6231 131.41 59.5187 131.401L59.5253 133.848ZM51.2347 136.825C51.3114 136.947 51.4506 137.033 51.598 137.034L55.743 137.035C55.8349 137.033 55.9208 136.999 55.9942 136.944L55.9915 134.498C55.9192 134.555 55.8295 134.588 55.7381 134.59L51.5893 134.588C51.4528 134.59 51.3217 134.512 51.2418 134.402L51.2347 136.825Z" fill="white"/>
<path d="M44.0456 118.402L41.2249 120.03C41.0563 120.128 41.0481 120.299 41.2058 120.412L43.4409 122.02C43.5986 122.134 43.6133 122.336 43.4823 122.479C43.156 122.837 42.89 123.207 42.6845 123.587C42.5915 123.757 42.3707 123.911 42.1765 123.924L38.4182 124.161C38.2241 124.173 38.0669 124.341 38.0669 124.535V126.632C38.0669 126.827 38.2241 126.994 38.4182 127.007L42.1771 127.245C42.3712 127.257 42.592 127.411 42.685 127.582C42.8906 127.961 43.1565 128.332 43.4833 128.689C43.6144 128.833 43.5997 129.034 43.442 129.148L41.2069 130.756C41.0492 130.869 41.0579 131.04 41.2259 131.137L44.0462 132.766C44.2148 132.863 44.4938 132.875 44.6705 132.794L47.5294 131.469C47.7056 131.388 47.9981 131.372 48.1836 131.43C48.896 131.652 49.6399 131.828 50.4034 131.958C50.5949 131.99 50.7803 132.168 50.8167 132.359L51.1746 134.243C51.211 134.434 51.3975 134.589 51.5922 134.589H55.7394C55.9335 134.589 56.1206 134.434 56.157 134.243L56.5149 132.359C56.5513 132.169 56.7368 131.991 56.9282 131.958C57.6912 131.829 58.4357 131.653 59.1475 131.43C59.333 131.372 59.625 131.388 59.8012 131.469L62.66 132.794C62.8362 132.875 63.1158 132.863 63.2844 132.766L66.1046 131.137C66.2732 131.04 66.2813 130.869 66.1236 130.756L63.8885 129.148C63.7308 129.034 63.7161 128.832 63.8472 128.689C64.1735 128.331 64.4394 127.961 64.6455 127.581C64.7385 127.411 64.9593 127.257 65.1535 127.244L68.9118 127.007C69.1059 126.994 69.2631 126.827 69.2631 126.632V124.535C69.2631 124.341 69.1059 124.174 68.9118 124.161L65.1535 123.923C64.9593 123.911 64.7385 123.757 64.6455 123.586C64.4394 123.207 64.174 122.836 63.8472 122.479C63.7161 122.335 63.7308 122.133 63.8885 122.02L66.1236 120.411C66.2813 120.297 66.2732 120.127 66.1046 120.029L63.2844 118.401C63.1158 118.304 62.8362 118.291 62.66 118.373L59.8006 119.698C59.6244 119.779 59.3319 119.794 59.1464 119.737C58.4346 119.514 57.6901 119.339 56.9271 119.209C56.7357 119.177 56.5502 118.999 56.5138 118.808L56.156 116.924C56.1195 116.733 55.933 116.578 55.7383 116.578H51.5911C51.397 116.578 51.2099 116.733 51.1735 116.924L50.8157 118.808C50.7792 118.999 50.5938 119.177 50.4024 119.209C49.6394 119.339 48.8949 119.514 48.1825 119.737C47.997 119.795 47.705 119.779 47.5288 119.698L44.67 118.373C44.4932 118.292 44.2142 118.304 44.0456 118.402ZM58.4291 122.833C61.0607 124.352 61.0607 126.816 58.4291 128.335C55.7976 129.855 51.5308 129.855 48.8992 128.335C46.2677 126.816 46.2677 124.353 48.8992 122.833C51.5313 121.313 55.7976 121.313 58.4291 122.833Z" fill="#FFBF00"/>
<path opacity="0.55" d="M44.0456 118.402L41.2249 120.03C41.0563 120.128 41.0481 120.299 41.2058 120.412L43.4409 122.02C43.5986 122.134 43.6133 122.336 43.4823 122.479C43.156 122.837 42.89 123.207 42.6845 123.587C42.5915 123.757 42.3707 123.911 42.1765 123.924L38.4182 124.161C38.2241 124.173 38.0669 124.341 38.0669 124.535V126.632C38.0669 126.827 38.2241 126.994 38.4182 127.007L42.1771 127.245C42.3712 127.257 42.592 127.411 42.685 127.582C42.8906 127.961 43.1565 128.332 43.4833 128.689C43.6144 128.833 43.5997 129.034 43.442 129.148L41.2069 130.756C41.0492 130.869 41.0579 131.04 41.2259 131.137L44.0462 132.766C44.2148 132.863 44.4938 132.875 44.6705 132.794L47.5294 131.469C47.7056 131.388 47.9981 131.372 48.1836 131.43C48.896 131.652 49.6399 131.828 50.4034 131.958C50.5949 131.99 50.7803 132.168 50.8167 132.359L51.1746 134.243C51.211 134.434 51.3975 134.589 51.5922 134.589H55.7394C55.9335 134.589 56.1206 134.434 56.157 134.243L56.5149 132.359C56.5513 132.169 56.7368 131.991 56.9282 131.958C57.6912 131.829 58.4357 131.653 59.1475 131.43C59.333 131.372 59.625 131.388 59.8012 131.469L62.66 132.794C62.8362 132.875 63.1158 132.863 63.2844 132.766L66.1046 131.137C66.2732 131.04 66.2813 130.869 66.1236 130.756L63.8885 129.148C63.7308 129.034 63.7161 128.832 63.8472 128.689C64.1735 128.331 64.4394 127.961 64.6455 127.581C64.7385 127.411 64.9593 127.257 65.1535 127.244L68.9118 127.007C69.1059 126.994 69.2631 126.827 69.2631 126.632V124.535C69.2631 124.341 69.1059 124.174 68.9118 124.161L65.1535 123.923C64.9593 123.911 64.7385 123.757 64.6455 123.586C64.4394 123.207 64.174 122.836 63.8472 122.479C63.7161 122.335 63.7308 122.133 63.8885 122.02L66.1236 120.411C66.2813 120.297 66.2732 120.127 66.1046 120.029L63.2844 118.401C63.1158 118.304 62.8362 118.291 62.66 118.373L59.8006 119.698C59.6244 119.779 59.3319 119.794 59.1464 119.737C58.4346 119.514 57.6901 119.339 56.9271 119.209C56.7357 119.177 56.5502 118.999 56.5138 118.808L56.156 116.924C56.1195 116.733 55.933 116.578 55.7383 116.578H51.5911C51.397 116.578 51.2099 116.733 51.1735 116.924L50.8157 118.808C50.7792 118.999 50.5938 119.177 50.4024 119.209C49.6394 119.339 48.8949 119.514 48.1825 119.737C47.997 119.795 47.705 119.779 47.5288 119.698L44.67 118.373C44.4932 118.292 44.2142 118.304 44.0456 118.402ZM58.4291 122.833C61.0607 124.352 61.0607 126.816 58.4291 128.335C55.7976 129.855 51.5308 129.855 48.8992 128.335C46.2677 126.816 46.2677 124.353 48.8992 122.833C51.5313 121.313 55.7976 121.313 58.4291 122.833Z" fill="white" stroke="white" stroke-width="0.5089" stroke-miterlimit="10"/>
<path d="M80.1309 147.039C79.5305 147.039 78.9464 146.686 78.6767 146.161L78.1927 145.218C77.7555 145.184 77.2764 145.124 76.8152 145.044C76.7521 145.045 76.6706 145.065 76.6423 145.079L75.2604 145.998C74.9755 146.187 74.6089 146.292 74.2288 146.292C73.9922 146.292 73.772 146.252 73.5735 146.171L71.4934 145.339C71.0866 145.176 70.8022 144.851 70.7125 144.448C70.6233 144.045 70.744 143.63 71.0431 143.309L71.6016 142.716C71.5217 142.643 71.445 142.568 71.3721 142.492C71.3574 142.482 71.2993 142.453 71.271 142.448L68.9374 142.546C68.2191 142.546 67.5975 142.09 67.4017 141.462L67.0411 140.313C66.9237 139.937 66.9715 139.532 67.1733 139.205C67.374 138.876 67.7122 138.65 68.0994 138.584L70.2007 138.224C70.2062 138.206 70.2122 138.189 70.2187 138.171L68.9603 137.539C68.5676 137.342 68.3044 136.98 68.2582 136.57C68.2114 136.161 68.3849 135.749 68.7221 135.468L70.0496 134.363C70.3557 134.109 70.7968 133.957 71.2291 133.957C71.4058 133.957 71.5755 133.982 71.7321 134.032L73.7546 134.665C73.8742 134.665 73.9422 134.65 73.9613 134.642C74.2375 134.523 74.5295 134.41 74.8314 134.308L74.7509 133.647C74.7052 133.271 74.8096 132.902 75.0456 132.607C75.2806 132.312 75.6177 132.128 75.994 132.089L78.6424 131.812L78.7474 131.809C79.3472 131.809 79.9313 132.162 80.201 132.687L80.6861 133.631C81.1228 133.665 81.6019 133.724 82.0631 133.804C82.1262 133.803 82.2077 133.783 82.236 133.769L83.6179 132.851C83.9039 132.661 84.2699 132.556 84.6495 132.556C84.885 132.556 85.1063 132.597 85.3048 132.677L87.3849 133.51C87.7917 133.673 88.0766 133.998 88.1664 134.402C88.2555 134.806 88.1343 135.221 87.8341 135.539L87.2767 136.132C87.3555 136.205 87.4322 136.28 87.5056 136.355C87.5208 136.368 87.578 136.395 87.6057 136.401C87.6057 136.401 89.9398 136.303 89.9414 136.303C90.6598 136.303 91.2808 136.759 91.4766 137.387L91.8371 138.536C91.9552 138.91 91.9078 139.314 91.7066 139.643C91.5054 139.972 91.1677 140.2 90.7789 140.266L88.6786 140.625C88.6727 140.643 88.6672 140.661 88.6607 140.679L89.9191 141.31C90.3117 141.508 90.5739 141.87 90.6212 142.279C90.6679 142.689 90.4939 143.1 90.1562 143.381L88.8293 144.486C88.5231 144.741 88.0815 144.893 87.6486 144.893C87.4719 144.893 87.3022 144.868 87.1451 144.818L85.1226 144.184C85.003 144.185 84.935 144.2 84.916 144.207C84.6397 144.327 84.3477 144.439 84.0458 144.542L84.1263 145.201C84.1715 145.578 84.0665 145.947 83.8316 146.242C83.5961 146.537 83.2595 146.721 82.8832 146.76L80.2348 147.037L80.1309 147.039ZM79.444 137.496C78.0475 137.496 76.7124 137.886 75.9587 138.513C75.677 138.747 75.3545 139.115 75.4214 139.535C75.4992 140.032 76.0881 140.556 76.9571 140.905C77.6831 141.195 78.5402 141.349 79.4353 141.349C80.8313 141.349 82.1659 140.959 82.9185 140.333C83.2007 140.099 83.5232 139.731 83.4563 139.311C83.3775 138.814 82.7896 138.289 81.9206 137.941C81.1957 137.65 80.3392 137.496 79.444 137.496Z" fill="#E0E0E0"/>
<path d="M74.3341 133.602C74.0997 133.703 73.7174 133.734 73.4732 133.658L71.4497 133.023C71.2061 132.947 70.8493 133.017 70.653 133.181L69.325 134.286C69.2347 134.361 69.1939 134.449 69.1956 134.534L69.1934 134.533L69.1939 136.668L69.1966 136.666C69.195 136.769 69.2565 136.867 69.3837 136.931L70.1016 137.291L68.2596 137.606C68.0508 137.642 67.9257 137.809 67.9295 138.004L67.9214 137.999L67.9219 140.136L67.9241 140.137C67.9241 140.179 67.9285 140.223 67.9426 140.267L68.3026 141.417C68.3793 141.66 68.6479 141.85 68.903 141.84L71.28 141.744C71.4595 141.736 71.6765 141.813 71.8527 141.921L71.7319 142.049C71.6623 142.123 71.6297 142.204 71.6292 142.28L71.6275 142.281L71.6281 144.424L71.6297 144.422C71.6291 144.538 71.7026 144.643 71.845 144.7L73.9257 145.533C74.1628 145.628 74.5277 145.59 74.7403 145.449L76.1396 144.52C76.3522 144.378 76.7275 144.308 76.9792 144.352C77.4225 144.429 77.8733 144.484 78.3263 144.519C78.5813 144.538 78.8826 144.731 78.9995 144.958L79.5173 145.966C79.6336 146.194 79.9344 146.356 80.1883 146.33L82.7883 146.058C83.0211 146.034 83.1902 145.841 83.194 145.614L83.1962 145.613L83.1957 144.164C83.2647 144.078 83.3561 144.009 83.4621 143.976C83.8384 143.86 84.2012 143.727 84.5465 143.577C84.7809 143.475 85.1637 143.444 85.4074 143.521L87.4309 144.155C87.6745 144.231 88.0313 144.161 88.2276 143.997L89.5556 142.892C89.6421 142.82 89.6829 142.736 89.685 142.655L89.6878 142.656L89.6872 140.506L89.685 140.508C89.685 140.407 89.6231 140.311 89.498 140.248L88.7807 139.888L90.6226 139.572C90.8233 139.538 90.9521 139.383 90.9587 139.198H90.9608L90.9603 137.051L90.9538 137.053C90.9549 137.006 90.9549 136.959 90.9396 136.911L90.5796 135.761C90.5035 135.517 90.2343 135.328 89.9793 135.338L87.6022 135.434C87.4228 135.441 87.2058 135.365 87.0296 135.257L87.1503 135.129C87.221 135.053 87.2531 134.972 87.2525 134.895L87.2542 134.895L87.2531 132.771C87.2531 132.769 87.2531 132.769 87.2531 132.768V132.743L87.2515 132.745C87.2471 132.635 87.1748 132.534 87.0372 132.479L84.9565 131.645C84.7194 131.55 84.3545 131.588 84.1419 131.729L82.7426 132.659C82.53 132.8 82.1548 132.871 81.903 132.827C81.4598 132.749 81.009 132.694 80.5559 132.66C80.3009 132.641 79.9996 132.448 79.8827 132.221L79.365 131.212C79.2481 130.985 78.9479 130.822 78.6934 130.849L76.0934 131.12C75.8394 131.147 75.6583 131.373 75.6888 131.627L75.8084 132.615C75.8389 132.868 75.6632 133.127 75.419 133.202C75.0422 133.318 74.68 133.451 74.3341 133.602ZM83.523 139.153C81.959 140.455 78.8625 140.779 76.6078 139.876C75.7763 139.543 75.1776 139.089 74.8284 138.585C74.9628 138.397 75.1352 138.21 75.3576 138.025C76.9216 136.723 80.0176 136.399 82.2728 137.303C83.101 137.634 83.6981 138.086 84.0478 138.588C83.9113 138.783 83.7395 138.973 83.523 139.153Z" fill="#FFBF00"/>
<path opacity="0.2" d="M74.3341 133.602C74.0997 133.703 73.7174 133.734 73.4732 133.658L71.4497 133.023C71.2061 132.947 70.8493 133.017 70.653 133.181L69.325 134.286C69.2347 134.361 69.1939 134.449 69.1956 134.534L69.1934 134.533L69.1939 136.668L69.1966 136.666C69.195 136.769 69.2565 136.867 69.3837 136.931L70.1016 137.291L68.2596 137.606C68.0508 137.642 67.9257 137.809 67.9295 138.004L67.9214 137.999L67.9219 140.136L67.9241 140.137C67.9241 140.179 67.9285 140.223 67.9426 140.267L68.3026 141.417C68.3793 141.66 68.6479 141.85 68.903 141.84L71.28 141.744C71.4595 141.736 71.6765 141.813 71.8527 141.921L71.7319 142.049C71.6623 142.123 71.6297 142.204 71.6292 142.28L71.6275 142.281L71.6281 144.424L71.6297 144.422C71.6291 144.538 71.7026 144.643 71.845 144.7L73.9257 145.533C74.1628 145.628 74.5277 145.59 74.7403 145.449L76.1396 144.52C76.3522 144.378 76.7275 144.308 76.9792 144.352C77.4225 144.429 77.8733 144.484 78.3263 144.519C78.5813 144.538 78.8826 144.731 78.9995 144.958L79.5173 145.966C79.6336 146.194 79.9344 146.356 80.1883 146.33L82.7883 146.058C83.0211 146.034 83.1902 145.841 83.194 145.614L83.1962 145.613L83.1957 144.164C83.2647 144.078 83.3561 144.009 83.4621 143.976C83.8384 143.86 84.2012 143.727 84.5465 143.577C84.7809 143.475 85.1637 143.444 85.4074 143.521L87.4309 144.155C87.6745 144.231 88.0313 144.161 88.2276 143.997L89.5556 142.892C89.6421 142.82 89.6829 142.736 89.685 142.655L89.6878 142.656L89.6872 140.506L89.685 140.508C89.685 140.407 89.6231 140.311 89.498 140.248L88.7807 139.888L90.6226 139.572C90.8233 139.538 90.9521 139.383 90.9587 139.198H90.9608L90.9603 137.051L90.9538 137.053C90.9549 137.006 90.9549 136.959 90.9396 136.911L90.5796 135.761C90.5035 135.517 90.2343 135.328 89.9793 135.338L87.6022 135.434C87.4228 135.441 87.2058 135.365 87.0296 135.257L87.1503 135.129C87.221 135.053 87.2531 134.972 87.2525 134.895L87.2542 134.895L87.2531 132.771C87.2531 132.769 87.2531 132.769 87.2531 132.768V132.743L87.2515 132.745C87.2471 132.635 87.1748 132.534 87.0372 132.479L84.9565 131.645C84.7194 131.55 84.3545 131.588 84.1419 131.729L82.7426 132.659C82.53 132.8 82.1548 132.871 81.903 132.827C81.4598 132.749 81.009 132.694 80.5559 132.66C80.3009 132.641 79.9996 132.448 79.8827 132.221L79.365 131.212C79.2481 130.985 78.9479 130.822 78.6934 130.849L76.0934 131.12C75.8394 131.147 75.6583 131.373 75.6888 131.627L75.8084 132.615C75.8389 132.868 75.6632 133.127 75.419 133.202C75.0422 133.318 74.68 133.451 74.3341 133.602ZM83.523 139.153C81.959 140.455 78.8625 140.779 76.6078 139.876C75.7763 139.543 75.1776 139.089 74.8284 138.585C74.9628 138.397 75.1352 138.21 75.3576 138.025C76.9216 136.723 80.0176 136.399 82.2728 137.303C83.101 137.634 83.6981 138.086 84.0478 138.588C83.9113 138.783 83.7395 138.973 83.523 139.153Z" fill="white"/>
<path opacity="0.1" d="M87.6371 138.797C87.5272 139.028 87.5969 139.294 87.8269 139.409L88.7797 139.889L90.6216 139.573C90.8201 139.538 90.949 139.383 90.956 139.199L90.9544 137.079C90.9419 137.254 90.8136 137.396 90.6205 137.432L88.3571 137.818C88.1086 137.861 87.8786 138.103 87.8051 138.347C87.7622 138.497 87.7062 138.647 87.6371 138.797ZM87.2499 132.757C87.251 132.832 87.2184 132.914 87.1482 132.989L86.203 133.992C86.0285 134.177 86.0606 134.444 86.2607 134.601C86.4706 134.761 86.662 134.932 86.8306 135.108C86.8828 135.162 86.9513 135.215 87.0269 135.259L87.1493 135.13C87.2178 135.052 87.2504 134.97 87.2494 134.895L87.2526 134.894L87.2499 132.757Z" fill="black"/>
<path opacity="0.1" d="M82.272 135.162C84.2173 135.941 84.903 137.377 84.0454 138.59C83.699 138.084 83.1003 137.636 82.2731 137.303C80.0174 136.4 76.9225 136.721 75.3563 138.024C75.136 138.21 74.9615 138.395 74.831 138.584C74.2284 137.722 74.3676 136.705 75.3552 135.883C76.9214 134.58 80.0163 134.259 82.272 135.162Z" fill="black"/>
<path d="M78.7756 144.711C78.8681 144.784 78.9529 144.865 78.9975 144.957L79.518 145.967C79.5914 146.109 79.7355 146.227 79.9008 146.288L79.8992 144.146C79.7371 144.084 79.5903 143.968 79.5163 143.825L78.9959 142.815C78.9513 142.723 78.873 142.638 78.7805 142.565L78.7756 144.711ZM71.6288 144.423C71.6277 144.537 71.7006 144.642 71.8425 144.699L73.9248 145.533C74.0787 145.596 74.2837 145.595 74.4702 145.555L74.4686 143.413C74.2837 143.457 74.0765 143.454 73.9231 143.392L71.8458 142.558C71.7022 142.498 71.6255 142.396 71.6304 142.279C71.6271 142.281 71.6271 142.281 71.6271 142.281L71.6288 144.423ZM85.4304 143.528L87.43 144.154C87.5795 144.202 87.7644 144.188 87.9341 144.14L87.9314 142.004C87.7633 142.055 87.5763 142.058 87.4284 142.013L85.432 141.385L85.4304 143.528ZM67.9232 140.136C67.9226 140.178 67.927 140.222 67.9438 140.267L68.3011 141.417C68.3778 141.659 68.6465 141.848 68.9015 141.839L71.2785 141.744C71.3944 141.74 71.5244 141.77 71.65 141.82L71.6483 139.678C71.5233 139.629 71.3927 139.599 71.2769 139.603L68.8999 139.698C68.6465 139.71 68.3773 139.52 68.2995 139.276L67.9422 138.125C67.9297 138.083 67.9226 138.04 67.9199 138L67.9232 140.136ZM69.193 136.669L69.1963 136.667C69.1957 136.768 69.2572 136.867 69.3833 136.933L70.1023 137.291L70.5205 137.222C70.7723 137.177 71.0017 136.935 71.0735 136.688C71.1165 136.538 71.1747 136.39 71.2437 136.241C71.2595 136.203 71.272 136.166 71.2824 136.126C71.2873 136.098 71.29 136.067 71.2921 136.041C71.2949 135.981 71.2851 135.927 71.2677 135.875C71.2459 135.808 71.2079 135.75 71.1546 135.701C71.1301 135.673 71.0942 135.647 71.054 135.628L69.3855 134.79C69.3436 134.768 69.3077 134.742 69.28 134.716C69.2436 134.683 69.2186 134.647 69.2082 134.606C69.1984 134.582 69.1925 134.557 69.1908 134.532L69.193 136.669Z" fill="#FFBF00"/>
<path opacity="0.7" d="M78.7756 144.711C78.8681 144.784 78.9529 144.865 78.9975 144.957L79.518 145.967C79.5914 146.109 79.7355 146.227 79.9008 146.288L79.8992 144.146C79.7371 144.084 79.5903 143.968 79.5163 143.825L78.9959 142.815C78.9513 142.723 78.873 142.638 78.7805 142.565L78.7756 144.711ZM71.6288 144.423C71.6277 144.537 71.7006 144.642 71.8425 144.699L73.9248 145.533C74.0787 145.596 74.2837 145.595 74.4702 145.555L74.4686 143.413C74.2837 143.457 74.0765 143.454 73.9231 143.392L71.8458 142.558C71.7022 142.498 71.6255 142.396 71.6304 142.279C71.6271 142.281 71.6271 142.281 71.6271 142.281L71.6288 144.423ZM85.4304 143.528L87.43 144.154C87.5795 144.202 87.7644 144.188 87.9341 144.14L87.9314 142.004C87.7633 142.055 87.5763 142.058 87.4284 142.013L85.432 141.385L85.4304 143.528ZM67.9232 140.136C67.9226 140.178 67.927 140.222 67.9438 140.267L68.3011 141.417C68.3778 141.659 68.6465 141.848 68.9015 141.839L71.2785 141.744C71.3944 141.74 71.5244 141.77 71.65 141.82L71.6483 139.678C71.5233 139.629 71.3927 139.599 71.2769 139.603L68.8999 139.698C68.6465 139.71 68.3773 139.52 68.2995 139.276L67.9422 138.125C67.9297 138.083 67.9226 138.04 67.9199 138L67.9232 140.136ZM69.193 136.669L69.1963 136.667C69.1957 136.768 69.2572 136.867 69.3833 136.933L70.1023 137.291L70.5205 137.222C70.7723 137.177 71.0017 136.935 71.0735 136.688C71.1165 136.538 71.1747 136.39 71.2437 136.241C71.2595 136.203 71.272 136.166 71.2824 136.126C71.2873 136.098 71.29 136.067 71.2921 136.041C71.2949 135.981 71.2851 135.927 71.2677 135.875C71.2459 135.808 71.2079 135.75 71.1546 135.701C71.1301 135.673 71.0942 135.647 71.054 135.628L69.3855 134.79C69.3436 134.768 69.3077 134.742 69.28 134.716C69.2436 134.683 69.2186 134.647 69.2082 134.606C69.1984 134.582 69.1925 134.557 69.1908 134.532L69.193 136.669Z" fill="white"/>
<path d="M70.6531 133.181L69.3251 134.286C69.1288 134.449 69.1549 134.675 69.3833 134.789L71.0522 135.627C71.2806 135.741 71.3508 136.008 71.2431 136.24C71.1735 136.389 71.117 136.538 71.0729 136.689C71.0006 136.935 70.7727 137.176 70.5209 137.219L68.2597 137.606C68.0079 137.649 67.8655 137.881 67.9421 138.125L68.3021 139.275C68.3783 139.518 68.6475 139.708 68.9025 139.697L71.2796 139.601C71.5346 139.591 71.8701 139.746 72.0485 139.929C72.2193 140.104 72.4091 140.273 72.6179 140.436C72.8191 140.593 72.8506 140.858 72.6761 141.045L71.732 142.049C71.5569 142.235 71.6075 142.462 71.8446 142.558L73.9252 143.391C74.1623 143.486 74.5273 143.448 74.7399 143.307L76.1391 142.378C76.3518 142.237 76.727 142.166 76.9788 142.21C77.422 142.287 77.8728 142.343 78.3258 142.377C78.5803 142.397 78.8821 142.589 78.9991 142.817L79.5168 143.825C79.6337 144.053 79.9339 144.215 80.1879 144.189L82.7879 143.917C83.0418 143.891 83.2229 143.664 83.1925 143.41L83.0728 142.422C83.0424 142.169 83.218 141.911 83.4617 141.835C83.838 141.719 84.2007 141.585 84.546 141.435C84.7804 141.334 85.1633 141.303 85.4069 141.379L87.4305 142.013C87.6741 142.09 88.0308 142.019 88.2271 141.856L89.5552 140.751C89.7515 140.587 89.7254 140.362 89.4975 140.247L87.8285 139.409C87.6001 139.295 87.53 139.028 87.6376 138.797C87.7073 138.648 87.7638 138.498 87.8084 138.347C87.8807 138.102 88.1086 137.861 88.3604 137.818L90.6216 137.431C90.8734 137.388 91.0159 137.155 90.9392 136.912L90.5792 135.762C90.5025 135.518 90.2338 135.329 89.9788 135.339L87.6018 135.435C87.3467 135.445 87.0112 135.29 86.8328 135.107C86.6626 134.932 86.4728 134.763 86.2634 134.6C86.0622 134.443 86.0307 134.178 86.2052 133.991L87.1493 132.988C87.3244 132.802 87.2738 132.574 87.0367 132.479L84.9561 131.645C84.719 131.55 84.3541 131.588 84.1414 131.729L82.7422 132.659C82.5296 132.8 82.1543 132.871 81.9025 132.827C81.4593 132.749 81.0085 132.694 80.5555 132.66C80.3004 132.641 79.9992 132.448 79.8822 132.221L79.3645 131.212C79.2476 130.985 78.9474 130.822 78.6934 130.849L76.0934 131.12C75.8395 131.147 75.6584 131.373 75.6888 131.627L75.8085 132.615C75.8389 132.868 75.6633 133.127 75.4191 133.202C75.0433 133.319 74.6806 133.452 74.3347 133.602C74.1003 133.704 73.718 133.735 73.4739 133.658L71.4503 133.024C71.2061 132.947 70.8494 133.017 70.6531 133.181ZM82.2723 135.161C84.5275 136.064 85.0871 137.852 83.5231 139.154C81.9591 140.456 78.8626 140.779 76.6079 139.876C74.3527 138.973 73.7931 137.185 75.3571 135.883C76.9211 134.581 80.0171 134.258 82.2723 135.161Z" fill="#FFBF00"/>
<path opacity="0.55" d="M70.6531 133.181L69.3251 134.286C69.1288 134.449 69.1549 134.675 69.3833 134.789L71.0522 135.627C71.2806 135.741 71.3508 136.008 71.2431 136.24C71.1735 136.389 71.117 136.538 71.0729 136.689C71.0006 136.935 70.7727 137.176 70.5209 137.219L68.2597 137.606C68.0079 137.649 67.8655 137.881 67.9421 138.125L68.3021 139.275C68.3783 139.518 68.6475 139.708 68.9025 139.697L71.2796 139.601C71.5346 139.591 71.8701 139.746 72.0485 139.929C72.2193 140.104 72.4091 140.273 72.6179 140.436C72.8191 140.593 72.8506 140.858 72.6761 141.045L71.732 142.049C71.5569 142.235 71.6075 142.462 71.8446 142.558L73.9252 143.391C74.1623 143.486 74.5273 143.448 74.7399 143.307L76.1391 142.378C76.3518 142.237 76.727 142.166 76.9788 142.21C77.422 142.287 77.8728 142.343 78.3258 142.377C78.5803 142.397 78.8821 142.589 78.9991 142.817L79.5168 143.825C79.6337 144.053 79.9339 144.215 80.1879 144.189L82.7879 143.917C83.0418 143.891 83.2229 143.664 83.1925 143.41L83.0728 142.422C83.0424 142.169 83.218 141.911 83.4617 141.835C83.838 141.719 84.2007 141.585 84.546 141.435C84.7804 141.334 85.1633 141.303 85.4069 141.379L87.4305 142.013C87.6741 142.09 88.0308 142.019 88.2271 141.856L89.5552 140.751C89.7515 140.587 89.7254 140.362 89.4975 140.247L87.8285 139.409C87.6001 139.295 87.53 139.028 87.6376 138.797C87.7073 138.648 87.7638 138.498 87.8084 138.347C87.8807 138.102 88.1086 137.861 88.3604 137.818L90.6216 137.431C90.8734 137.388 91.0159 137.155 90.9392 136.912L90.5792 135.762C90.5025 135.518 90.2338 135.329 89.9788 135.339L87.6018 135.435C87.3467 135.445 87.0112 135.29 86.8328 135.107C86.6626 134.932 86.4728 134.763 86.2634 134.6C86.0622 134.443 86.0307 134.178 86.2052 133.991L87.1493 132.988C87.3244 132.802 87.2738 132.574 87.0367 132.479L84.9561 131.645C84.719 131.55 84.3541 131.588 84.1414 131.729L82.7422 132.659C82.5296 132.8 82.1543 132.871 81.9025 132.827C81.4593 132.749 81.0085 132.694 80.5555 132.66C80.3004 132.641 79.9992 132.448 79.8822 132.221L79.3645 131.212C79.2476 130.985 78.9474 130.822 78.6934 130.849L76.0934 131.12C75.8395 131.147 75.6584 131.373 75.6888 131.627L75.8085 132.615C75.8389 132.868 75.6633 133.127 75.4191 133.202C75.0433 133.319 74.6806 133.452 74.3347 133.602C74.1003 133.704 73.718 133.735 73.4739 133.658L71.4503 133.024C71.2061 132.947 70.8494 133.017 70.6531 133.181ZM82.2723 135.161C84.5275 136.064 85.0871 137.852 83.5231 139.154C81.9591 140.456 78.8626 140.779 76.6079 139.876C74.3527 138.973 73.7931 137.185 75.3571 135.883C76.9211 134.581 80.0171 134.258 82.2723 135.161Z" fill="white" stroke="white" stroke-width="0.6689" stroke-miterlimit="10"/>
<path d="M45.9904 73.8257C48.3484 75.1831 49.8074 78.098 49.8074 82.25C49.8069 90.5487 43.9804 100.639 36.7927 104.788C33.1861 106.87 29.9237 107.058 27.5674 105.682C26.9539 105.323 24.4062 103.918 23.784 103.56C21.4282 102.201 19.9702 99.2879 19.9702 95.138C19.9708 86.8404 25.7978 76.7498 32.9849 72.5999C36.5763 70.5264 39.8267 70.3311 42.1804 71.6885" fill="#FFBF00"/>
<path opacity="0.65" d="M36.7927 104.788C33.1861 106.87 29.9237 107.058 27.5674 105.682C26.9539 105.323 24.4062 103.918 23.784 103.56C21.4282 102.202 19.9708 99.2885 19.9702 95.1397L36.7927 104.788Z" fill="black"/>
<path opacity="0.55" d="M43.5644 98.6863C41.5914 101.216 39.2731 103.356 36.7927 104.787L19.9702 95.139V95.1373C19.9702 92.2741 20.6647 89.1972 21.8692 86.2247L43.5644 98.6863Z" fill="black"/>
<path opacity="0.4" d="M21.8691 86.2254C24.1548 80.5838 28.2775 75.318 32.9848 72.6005C36.5762 70.5269 39.8266 70.3317 42.1803 71.689L45.9897 73.8263C48.3477 75.1836 49.8068 78.0985 49.8068 82.2506C49.8062 87.685 47.3074 93.8878 43.5643 98.687L21.8691 86.2254Z" fill="black"/>
<path d="M45.998 80.1134C45.9952 88.4121 40.1709 98.5027 32.9833 102.651C25.7962 106.799 19.9702 103.436 19.9702 95.138C19.9708 86.8404 25.794 76.7433 32.9844 72.6C40.1747 68.4582 46.0007 71.8218 45.998 80.1134Z" fill="#FFBF00"/>
<path opacity="0.2" d="M45.998 80.1134C45.9952 88.4121 40.1709 98.5027 32.9833 102.651C25.7962 106.799 19.9702 103.436 19.9702 95.138C19.9708 86.8404 25.794 76.7433 32.9844 72.6C40.1747 68.4582 46.0007 71.8218 45.998 80.1134Z" fill="black"/>
<path d="M42.7455 81.9901C42.7449 88.2158 38.3742 95.7852 32.9823 98.8969C27.5908 102.009 23.2202 99.4853 23.2207 93.2608C23.2212 87.0362 27.5919 79.4668 32.9834 76.354C38.3753 73.2411 42.746 75.7645 42.7455 81.9901Z" fill="#FAFAFA"/>
<path d="M39.7869 83.6982C39.7869 88.0363 36.741 93.3108 32.9837 95.4795C29.2265 97.6483 26.1811 95.8896 26.1816 91.5521C26.1816 87.2146 29.2276 81.9401 32.9848 79.7708C36.7415 77.602 39.7869 79.3602 39.7869 83.6982Z" fill="#FFBF00"/>
<path opacity="0.2" d="M39.7869 83.6982C39.7869 88.0363 36.741 93.3108 32.9837 95.4795C29.2265 97.6483 26.1811 95.8896 26.1816 91.5521C26.1816 87.2146 29.2276 81.9401 32.9848 79.7708C36.7415 77.602 39.7869 79.3602 39.7869 83.6982Z" fill="black"/>
<path d="M36.7486 85.4514C36.7486 87.8523 35.0623 90.7721 32.9827 91.9723C30.9031 93.1725 29.2173 92.1991 29.2173 89.7987C29.2173 87.3977 30.9037 84.478 32.9827 83.2778C35.0633 82.077 36.7486 83.0504 36.7486 85.4514Z" fill="#FAFAFA"/>
<path d="M34.572 86.7083C34.572 87.7214 33.8607 88.9532 32.9835 89.4595C32.1063 89.9658 31.395 89.5552 31.395 88.5426C31.395 87.53 32.1063 86.2983 32.9835 85.7914C33.8607 85.2851 34.572 85.6957 34.572 86.7083Z" fill="#455A64"/>
<path d="M7.42576 73.0138C7.42576 73.0138 3.96979 74.6605 2.20672 73.6424C0.443659 72.6244 2.64015 70.2506 3.78325 70.9108L7.42576 73.0138Z" fill="#FFBF00"/>
<path d="M7.4255 73.0138C7.4255 73.0138 7.12368 69.1972 5.36062 68.1792C3.59756 67.1612 2.63989 70.2506 3.78354 70.9103L7.4255 73.0138Z" fill="#FFBF00"/>
<path opacity="0.5" d="M7.4255 73.0138C7.4255 73.0138 7.12368 69.1972 5.36062 68.1792C3.59756 67.1612 2.63989 70.2506 3.78354 70.9103L7.4255 73.0138Z" fill="white"/>
<path d="M27.9533 85.3041L0.799805 69.6334L1.19407 68.965L28.7902 84.8908L27.9533 85.3041Z" fill="#37474F"/>
<path d="M2.28241 69.3229C2.28241 69.9532 1.77122 70.4644 1.14148 70.4644C0.511191 70.4644 0 69.9532 0 69.3229C0 68.6926 0.511191 68.1815 1.14148 68.1815C1.77122 68.182 2.28241 68.6926 2.28241 69.3229Z" fill="#263238"/>
<path d="M27.6653 84.6889C26.1296 84.4964 25.1284 87.029 25.1284 87.029L32.8289 87.6701L27.6653 84.6889Z" fill="#FFBF00"/>
<path d="M27.6653 84.6889C26.1296 84.4964 25.1284 87.029 25.1284 87.029L32.8289 87.6701L27.6653 84.6889Z" fill="#FFBF00"/>
<path d="M28.4244 81.3223C28.4244 81.3223 26.7315 83.4557 27.6663 84.689L32.8298 87.6703L28.4244 81.3223Z" fill="#FFBF00"/>
<path opacity="0.5" d="M28.4244 81.3223C28.4244 81.3223 26.7315 83.4557 27.6663 84.689L32.8298 87.6703L28.4244 81.3223Z" fill="white"/>
<path d="M204.322 122.727C211.056 122.727 216.515 119.575 216.515 115.686C216.515 111.798 211.056 108.646 204.322 108.646C197.588 108.646 192.128 111.798 192.128 115.686C192.128 119.575 197.588 122.727 204.322 122.727Z" fill="#E0E0E0"/>
<path d="M210.78 94.1488L211.962 94.8291C216.654 92.1144 222.516 81.9591 222.516 76.5388L221.334 75.8585L213.418 80.4304C213.418 80.4304 213.425 80.9818 213.36 81.9667L214.6 81.2505C214.597 81.4696 214.588 81.946 214.541 82.647L219.708 79.6614C219.416 80.8263 218.94 82.1309 218.292 83.5046C217.213 85.7772 215.757 88.0499 214.289 89.7455C213.697 90.4285 213.119 91.0055 212.566 91.4678C212.046 91.899 211.611 92.2003 211.357 92.3765C211.183 92.9491 210.988 93.5446 210.78 94.1488Z" fill="#FFBF00"/>
<path d="M214.6 81.1102C214.6 81.1102 214.607 81.6617 214.541 82.6465L221.177 78.8126C221.014 80.2999 220.423 82.1723 219.474 84.1844C218.395 86.4571 216.94 88.7297 215.471 90.4253C214.879 91.1083 214.301 91.6853 213.748 92.1476C213.229 92.5788 212.793 92.8801 212.54 93.0558C212.364 93.6289 212.169 94.2244 211.961 94.8286C216.654 92.1139 222.515 81.9586 222.515 76.5383L214.6 81.1102Z" fill="#FFBF00"/>
<path opacity="0.4" d="M214.6 81.1102C214.6 81.1102 214.607 81.6617 214.541 82.6465L221.177 78.8126C221.014 80.2999 220.423 82.1723 219.474 84.1844C218.395 86.4571 216.94 88.7297 215.471 90.4253C214.879 91.1083 214.301 91.6853 213.748 92.1476C213.229 92.5788 212.793 92.8801 212.54 93.0558C212.364 93.6289 212.169 94.2244 211.961 94.8286C216.654 92.1139 222.515 81.9586 222.515 76.5383L214.6 81.1102Z" fill="white"/>
<path d="M222.516 76.5399L214.597 81.1124L213.416 80.431L221.336 75.8585L222.516 76.5399Z" fill="#FFBF00"/>
<path opacity="0.6" d="M222.516 76.5399L214.597 81.1124L213.416 80.431L221.336 75.8585L222.516 76.5399Z" fill="white"/>
<path d="M197.259 114.05C197.259 113.007 197.946 111.964 199.326 111.167C202.085 109.572 206.558 109.572 209.315 111.167C210.609 111.915 211.296 112.878 211.376 113.855C211.378 113.874 211.378 113.89 211.378 113.91C211.381 113.957 211.381 114.004 211.381 114.051C211.381 114.098 211.381 115.357 211.381 115.404C211.381 115.451 211.381 115.497 211.378 115.545C211.378 115.564 211.378 115.581 211.376 115.6C211.296 116.576 210.609 117.539 209.315 118.287C206.558 119.879 202.085 119.879 199.326 118.287C197.946 117.49 197.259 116.447 197.259 115.404C197.259 115.177 197.259 114.276 197.259 114.05Z" fill="#FFBF00"/>
<path opacity="0.3" d="M197.259 114.05C197.259 113.007 197.946 111.964 199.326 111.167C202.085 109.572 206.558 109.572 209.315 111.167C210.609 111.915 211.296 112.878 211.376 113.855C211.378 113.874 211.378 113.89 211.378 113.91C211.381 113.957 211.381 114.004 211.381 114.051C211.381 114.098 211.381 115.357 211.381 115.404C211.381 115.451 211.381 115.497 211.378 115.545C211.378 115.564 211.378 115.581 211.376 115.6C211.296 116.576 210.609 117.539 209.315 118.287C206.558 119.879 202.085 119.879 199.326 118.287C197.946 117.49 197.259 116.447 197.259 115.404C197.259 115.177 197.259 114.276 197.259 114.05Z" fill="black"/>
<path opacity="0.7" d="M203.406 119.442C201.915 119.33 200.472 118.948 199.326 118.287C198.863 118.019 198.485 117.722 198.177 117.407V112.046C198.484 111.732 198.863 111.435 199.326 111.167C200.472 110.505 201.915 110.122 203.406 110.009V119.442Z" fill="#FFBF00"/>
<path opacity="0.2" d="M208.317 110.69C208.667 110.83 209.003 110.986 209.315 111.167C210.609 111.915 211.296 112.878 211.376 113.855C211.379 113.874 211.379 113.89 211.379 113.909C211.381 113.956 211.381 114.004 211.381 114.05C211.381 114.097 211.381 115.357 211.381 115.403C211.381 115.45 211.381 115.497 211.379 115.544C211.379 115.564 211.379 115.58 211.376 115.6C211.296 116.576 210.609 117.539 209.315 118.287C209.003 118.467 208.668 118.624 208.317 118.763V110.69Z" fill="black"/>
<path d="M210.881 115.375C210.952 115.271 211.015 115.166 211.071 115.06C211.086 115.031 211.101 115.003 211.115 114.974C211.159 114.882 211.198 114.79 211.232 114.697C211.242 114.669 211.253 114.64 211.263 114.611C211.3 114.495 211.331 114.378 211.35 114.261C211.351 114.258 211.351 114.256 211.352 114.254C211.371 114.135 211.38 114.015 211.382 113.895C211.382 113.86 211.379 113.825 211.378 113.789C211.375 113.706 211.369 113.622 211.357 113.539C211.351 113.496 211.345 113.453 211.336 113.411C211.32 113.331 211.3 113.251 211.276 113.172C211.264 113.132 211.255 113.093 211.241 113.054C211.202 112.941 211.155 112.831 211.1 112.721C211.083 112.686 211.06 112.652 211.041 112.617C210.997 112.539 210.951 112.461 210.899 112.384C210.868 112.337 210.834 112.292 210.8 112.246C210.775 112.213 210.753 112.178 210.726 112.145C210.688 112.102 210.648 112.055 210.607 112.007C210.586 111.983 210.564 111.959 210.542 111.935C209.03 110.196 206.807 109.617 204.32 109.617C201.831 109.617 199.605 110.198 198.092 111.941C198.074 111.96 198.057 111.98 198.039 112C197.996 112.05 197.954 112.1 197.914 112.145C197.885 112.181 197.862 112.218 197.836 112.253C197.804 112.295 197.773 112.337 197.744 112.38C197.688 112.463 197.638 112.547 197.591 112.632C197.575 112.66 197.556 112.689 197.542 112.717C197.485 112.829 197.438 112.943 197.398 113.057C197.386 113.092 197.377 113.127 197.367 113.162C197.341 113.247 197.32 113.331 197.304 113.416C197.296 113.455 197.29 113.494 197.285 113.533C197.272 113.622 197.265 113.71 197.263 113.799C197.262 113.83 197.259 113.861 197.259 113.891C197.262 114.134 197.302 114.376 197.379 114.615C197.388 114.641 197.397 114.666 197.407 114.691C197.441 114.788 197.482 114.885 197.529 114.981C197.542 115.006 197.553 115.031 197.567 115.056C197.625 115.168 197.692 115.279 197.767 115.388C197.77 115.392 197.773 115.397 197.776 115.401C197.86 115.521 197.955 115.639 198.06 115.755C198.067 115.763 198.075 115.77 198.082 115.777C198.176 115.879 198.278 115.979 198.388 116.077C198.413 116.099 198.439 116.121 198.465 116.144C198.567 116.23 198.674 116.314 198.787 116.396C198.815 116.417 198.842 116.437 198.87 116.457C199.014 116.557 199.164 116.655 199.327 116.749C202.081 118.342 206.556 118.342 209.311 116.749C209.472 116.656 209.621 116.559 209.764 116.459C209.796 116.437 209.826 116.414 209.857 116.391C209.967 116.312 210.07 116.231 210.167 116.148C210.197 116.123 210.226 116.098 210.254 116.073C210.359 115.979 210.458 115.884 210.548 115.786C210.558 115.774 210.57 115.763 210.58 115.752C210.683 115.638 210.777 115.522 210.86 115.404C210.869 115.394 210.874 115.384 210.881 115.375Z" fill="#FFBF00"/>
<g opacity="0.8">
<path d="M210.881 115.375C210.952 115.271 211.015 115.166 211.071 115.06C211.086 115.031 211.101 115.003 211.115 114.974C211.159 114.882 211.198 114.79 211.232 114.697C211.242 114.669 211.253 114.64 211.263 114.611C211.3 114.495 211.331 114.378 211.35 114.261C211.351 114.258 211.351 114.256 211.352 114.254C211.371 114.135 211.38 114.015 211.382 113.895C211.382 113.86 211.379 113.825 211.378 113.789C211.375 113.706 211.369 113.622 211.357 113.539C211.351 113.496 211.345 113.453 211.336 113.411C211.32 113.331 211.3 113.251 211.276 113.172C211.264 113.132 211.255 113.093 211.241 113.054C211.202 112.941 211.155 112.831 211.1 112.721C211.083 112.686 211.06 112.652 211.041 112.617C210.997 112.539 210.951 112.461 210.899 112.384C210.868 112.337 210.834 112.292 210.8 112.246C210.775 112.213 210.753 112.178 210.726 112.145C210.688 112.102 210.648 112.055 210.607 112.007C210.586 111.983 210.564 111.959 210.542 111.935C209.03 110.196 206.807 109.617 204.32 109.617C201.831 109.617 199.605 110.198 198.092 111.941C198.074 111.96 198.057 111.98 198.039 112C197.996 112.05 197.954 112.1 197.914 112.145C197.885 112.181 197.862 112.218 197.836 112.253C197.804 112.295 197.773 112.337 197.744 112.38C197.688 112.463 197.638 112.547 197.591 112.632C197.575 112.66 197.556 112.689 197.542 112.717C197.485 112.829 197.438 112.943 197.398 113.057C197.386 113.092 197.377 113.127 197.367 113.162C197.341 113.247 197.32 113.331 197.304 113.416C197.296 113.455 197.29 113.494 197.285 113.533C197.272 113.622 197.265 113.71 197.263 113.799C197.262 113.83 197.259 113.861 197.259 113.891C197.262 114.134 197.302 114.376 197.379 114.615C197.388 114.641 197.397 114.666 197.407 114.691C197.441 114.788 197.482 114.885 197.529 114.981C197.542 115.006 197.553 115.031 197.567 115.056C197.625 115.168 197.692 115.279 197.767 115.388C197.77 115.392 197.773 115.397 197.776 115.401C197.86 115.521 197.955 115.639 198.06 115.755C198.067 115.763 198.075 115.77 198.082 115.777C198.176 115.879 198.278 115.979 198.388 116.077C198.413 116.099 198.439 116.121 198.465 116.144C198.567 116.23 198.674 116.314 198.787 116.396C198.815 116.417 198.842 116.437 198.87 116.457C199.014 116.557 199.164 116.655 199.327 116.749C202.081 118.342 206.556 118.342 209.311 116.749C209.472 116.656 209.621 116.559 209.764 116.459C209.796 116.437 209.826 116.414 209.857 116.391C209.967 116.312 210.07 116.231 210.167 116.148C210.197 116.123 210.226 116.098 210.254 116.073C210.359 115.979 210.458 115.884 210.548 115.786C210.558 115.774 210.57 115.763 210.58 115.752C210.683 115.638 210.777 115.522 210.86 115.404C210.869 115.394 210.874 115.384 210.881 115.375Z" fill="white"/>
</g>
<path opacity="0.3" d="M201.168 112.094V110.022C202.002 109.776 202.905 109.653 203.851 109.624V113.138L203.41 117.906C201.917 117.794 200.474 117.411 199.329 116.749C199.166 116.656 199.016 116.557 198.872 116.457C198.844 116.437 198.817 116.417 198.79 116.397C198.676 116.314 198.569 116.23 198.468 116.144C198.441 116.121 198.415 116.099 198.39 116.077C198.315 116.01 198.246 115.942 198.178 115.874L201.168 112.094Z" fill="white"/>
<path opacity="0.15" d="M206.371 112.789V109.773C208.016 110.043 209.462 110.691 210.542 111.934C210.564 111.958 210.586 111.982 210.607 112.006C210.648 112.054 210.688 112.101 210.726 112.144C210.753 112.178 210.775 112.212 210.8 112.246C210.834 112.291 210.868 112.336 210.899 112.383C210.952 112.46 210.997 112.538 211.041 112.616C211.06 112.651 211.083 112.685 211.1 112.72C211.156 112.83 211.202 112.941 211.241 113.053C211.255 113.092 211.264 113.131 211.276 113.171C211.3 113.251 211.32 113.33 211.336 113.41C211.344 113.453 211.351 113.495 211.357 113.538C211.368 113.621 211.375 113.705 211.377 113.788C211.379 113.824 211.381 113.859 211.381 113.894C211.38 114.014 211.372 114.134 211.351 114.253C211.351 114.256 211.35 114.258 211.35 114.26C211.33 114.377 211.3 114.494 211.262 114.61C211.253 114.639 211.242 114.668 211.231 114.697C211.198 114.79 211.159 114.881 211.114 114.973C211.1 115.002 211.086 115.03 211.071 115.059C211.015 115.165 210.952 115.27 210.88 115.374C210.874 115.383 210.868 115.393 210.862 115.402C210.779 115.52 210.685 115.637 210.582 115.75C210.572 115.762 210.56 115.773 210.55 115.784C210.459 115.882 210.361 115.977 210.256 116.071C210.227 116.096 210.199 116.121 210.169 116.146C210.072 116.229 209.968 116.31 209.86 116.389C209.828 116.412 209.798 116.435 209.766 116.457C209.624 116.557 209.475 116.654 209.313 116.747C209.002 116.927 208.667 117.084 208.316 117.223L206.371 112.789Z" fill="#FFBF00"/>
<path d="M200.386 110.144C200.386 109.563 200.769 108.981 201.538 108.537C203.075 107.649 205.568 107.649 207.104 108.537C207.825 108.954 208.208 109.49 208.253 110.035C208.254 110.046 208.254 110.055 208.254 110.065C208.256 110.091 208.256 110.118 208.256 110.144C208.256 110.17 208.256 111.289 208.256 111.315C208.256 111.341 208.256 111.367 208.254 111.393C208.254 111.404 208.254 111.413 208.253 111.424C208.208 111.968 207.825 112.505 207.104 112.921C205.568 113.809 203.075 113.809 201.538 112.921C200.769 112.477 200.386 111.896 200.386 111.314C200.386 111.19 200.386 110.27 200.386 110.144Z" fill="#FFBF00"/>
<path opacity="0.3" d="M200.386 110.144C200.386 109.563 200.769 108.981 201.538 108.537C203.075 107.649 205.568 107.649 207.104 108.537C207.825 108.954 208.208 109.49 208.253 110.035C208.254 110.046 208.254 110.055 208.254 110.065C208.256 110.091 208.256 110.118 208.256 110.144C208.256 110.17 208.256 111.289 208.256 111.315C208.256 111.341 208.256 111.367 208.254 111.393C208.254 111.404 208.254 111.413 208.253 111.424C208.208 111.968 207.825 112.505 207.104 112.921C205.568 113.809 203.075 113.809 201.538 112.921C200.769 112.477 200.386 111.896 200.386 111.314C200.386 111.19 200.386 110.27 200.386 110.144Z" fill="black"/>
<path opacity="0.7" d="M203.811 113.566C202.98 113.504 202.177 113.291 201.538 112.923C201.28 112.773 201.069 112.613 200.897 112.437V109.028C201.069 108.853 201.28 108.687 201.538 108.538C202.177 108.168 202.98 107.955 203.811 107.893V113.566Z" fill="#FFBF00"/>
<path opacity="0.2" d="M206.548 108.272C206.744 108.349 206.931 108.437 207.104 108.538C207.825 108.954 208.208 109.491 208.253 110.035C208.254 110.046 208.254 110.055 208.254 110.066C208.256 110.092 208.256 110.118 208.256 110.144C208.256 110.17 208.256 111.289 208.256 111.315C208.256 111.341 208.256 111.368 208.254 111.394C208.254 111.405 208.254 111.414 208.253 111.424C208.208 111.968 207.825 112.505 207.104 112.922C206.931 113.022 206.744 113.112 206.548 113.189V108.272Z" fill="black"/>
<path d="M200.389 110.036V110.031C200.474 108.535 204.321 105.882 204.321 105.882C204.321 105.882 208.168 108.535 208.253 110.031V110.036C208.257 110.097 208.259 110.16 208.254 110.223C208.254 110.234 208.254 110.243 208.253 110.254C208.208 110.799 207.825 111.335 207.104 111.752C205.566 112.639 203.075 112.639 201.538 111.752C200.816 111.335 200.434 110.799 200.389 110.254C200.387 110.243 200.387 110.234 200.387 110.223C200.383 110.16 200.385 110.097 200.389 110.036Z" fill="#FFBF00"/>
<path opacity="0.8" d="M200.389 110.036V110.031C200.474 108.535 204.321 105.882 204.321 105.882C204.321 105.882 208.168 108.535 208.253 110.031V110.036C208.257 110.097 208.259 110.16 208.254 110.223C208.254 110.234 208.254 110.243 208.253 110.254C208.208 110.799 207.825 111.335 207.104 111.752C205.566 112.639 203.075 112.639 201.538 111.752C200.816 111.335 200.434 110.799 200.389 110.254C200.387 110.243 200.387 110.234 200.387 110.223C200.383 110.16 200.385 110.097 200.389 110.036Z" fill="white"/>
<path opacity="0.3" d="M201.538 111.751C201.31 111.619 201.12 111.475 200.96 111.323C200.965 109.467 204.321 105.881 204.321 105.881C204.321 105.881 203.811 110.988 203.811 112.395C202.98 112.333 202.176 112.12 201.538 111.751Z" fill="white"/>
<path opacity="0.15" d="M208.253 110.03V110.035C208.258 110.097 208.259 110.16 208.254 110.223C208.254 110.234 208.254 110.243 208.253 110.254C208.208 110.798 207.825 111.335 207.104 111.752C206.913 111.862 206.707 111.958 206.491 112.041C206.491 110.8 204.321 105.882 204.321 105.882C204.321 105.882 208.168 108.534 208.253 110.03Z" fill="#FFBF00"/>
<path d="M190.823 82.4447C190.823 80.45 192.14 78.4558 194.776 76.9336C200.048 73.8899 208.595 73.8899 213.867 76.9336C216.502 78.4552 217.82 80.45 217.82 82.4447C217.82 82.8433 217.82 84.4302 217.82 84.8288C217.82 86.8235 216.502 88.8177 213.867 90.3399C208.595 93.3836 200.048 93.3836 194.776 90.3399C192.14 88.8183 190.823 86.8235 190.823 84.8288C190.823 84.4302 190.823 82.8433 190.823 82.4447Z" fill="#FFBF00"/>
<path opacity="0.3" d="M190.823 82.4447C190.823 80.45 192.14 78.4558 194.776 76.9336C200.048 73.8899 208.595 73.8899 213.867 76.9336C216.502 78.4552 217.82 80.45 217.82 82.4447C217.82 82.8433 217.82 84.4302 217.82 84.8288C217.82 86.8235 216.502 88.8177 213.867 90.3399C208.595 93.3836 200.048 93.3836 194.776 90.3399C192.14 88.8183 190.823 86.8235 190.823 84.8288C190.823 84.4302 190.823 82.8433 190.823 82.4447Z" fill="black"/>
<path opacity="0.7" d="M193.841 77.5323V89.7405C191.829 88.3136 190.823 86.5712 190.823 84.8282C190.823 84.4296 190.823 82.8427 190.823 82.4441C190.823 80.7023 191.829 78.9599 193.841 77.5323Z" fill="#FFBF00"/>
<path opacity="0.7" d="M204.322 92.6224C201.633 92.6224 198.947 92.1596 196.646 91.2383V76.0353C198.947 75.1141 201.634 74.6513 204.322 74.6513V92.6224Z" fill="#FFBF00"/>
<path opacity="0.2" d="M213.076 76.515C213.346 76.6483 213.612 76.7864 213.867 76.9337C216.503 78.4554 217.821 80.4501 217.821 82.4448C217.821 82.8434 217.821 84.4303 217.821 84.8289C217.821 86.8237 216.503 88.8178 213.867 90.34C213.612 90.4874 213.346 90.6255 213.076 90.7587V76.515Z" fill="black"/>
<path d="M204.322 90.2383C211.777 90.2383 217.821 86.749 217.821 82.4448C217.821 78.1406 211.777 74.6513 204.322 74.6513C196.867 74.6513 190.823 78.1406 190.823 82.4448C190.823 86.749 196.867 90.2383 204.322 90.2383Z" fill="#FFBF00"/>
<path opacity="0.15" d="M204.322 90.2383C211.777 90.2383 217.821 86.749 217.821 82.4448C217.821 78.1406 211.777 74.6513 204.322 74.6513C196.867 74.6513 190.823 78.1406 190.823 82.4448C190.823 86.749 196.867 90.2383 204.322 90.2383Z" fill="black"/>
<path d="M192.204 82.4442C192.204 82.845 192.281 83.2458 192.428 83.6385C192.859 82.4997 193.904 81.4186 195.469 80.5148C197.81 79.1628 200.954 78.4167 204.32 78.4167C207.687 78.4167 210.834 79.1634 213.175 80.5148C214.74 81.4186 215.783 82.497 216.214 83.6385C216.36 83.2458 216.438 82.845 216.438 82.4442C216.438 80.8769 215.28 79.345 213.175 78.1317C210.834 76.7798 207.688 76.0337 204.32 76.0337C200.953 76.0337 197.81 76.7804 195.469 78.1317C193.365 79.345 192.204 80.8764 192.204 82.4442Z" fill="#FFBF00"/>
<path opacity="0.1" d="M209.937 76.7878C211.124 77.1288 212.218 77.5785 213.176 78.1316C215.279 79.3454 216.438 80.8768 216.438 82.444C216.438 82.8448 216.361 83.2456 216.214 83.6383C215.783 82.4968 214.74 81.4184 213.176 80.5146C212.218 79.9615 211.124 79.5118 209.937 79.1713V76.7878Z" fill="black"/>
<path opacity="0.2" d="M203.973 78.421C201.101 78.465 198.409 79.0529 196.26 80.0976V77.7146C198.41 76.6699 201.101 76.082 203.973 76.038V78.421Z" fill="white"/>
<path d="M217.821 84.8288C217.821 86.8235 216.502 88.8177 213.867 90.3399C208.595 93.3836 200.048 93.3836 194.777 90.3399C192.141 88.8183 190.823 86.8235 190.823 84.8288C190.823 97.3568 197.195 107.73 204.322 107.73C211.45 107.73 217.821 97.3568 217.821 84.8288Z" fill="#FFBF00"/>
<path opacity="0.7" d="M217.821 84.8288C217.821 86.8235 216.502 88.8177 213.867 90.3399C208.595 93.3836 200.048 93.3836 194.777 90.3399C192.141 88.8183 190.823 86.8235 190.823 84.8288C190.823 97.3568 197.195 107.73 204.322 107.73C211.45 107.73 217.821 97.3568 217.821 84.8288Z" fill="white"/>
<path opacity="0.2" d="M204.322 107.73C201.16 107.73 198.149 105.686 195.775 102.322C198.984 106.513 205.226 105.905 207.825 100.521C208.6 98.9164 209.672 95.4121 209.937 91.9175C211.36 91.5417 212.695 91.0169 213.867 90.3399C216.503 88.8183 217.82 86.8235 217.82 84.8288C217.82 97.3568 211.449 107.73 204.322 107.73Z" fill="#FFBF00"/>
<path opacity="0.35" d="M213.654 97.155C214.244 94.8139 214.557 92.4618 214.722 89.7955C216.785 88.3582 217.82 86.5935 217.82 84.8288C217.82 97.1131 211.693 107.32 204.735 107.712C208.69 107.374 212.361 102.284 213.654 97.155Z" fill="#FFBF00"/>
<path opacity="0.3" d="M194.776 90.3401C197.784 92.0771 201.859 92.821 205.782 92.5758C205.126 100.404 202.99 103.113 199.288 101.248C196.199 99.6911 194.721 94.6352 194.028 89.8687C194.265 90.0296 194.512 90.1879 194.776 90.3401Z" fill="white"/>
<path d="M192.427 83.6385C192.861 84.7745 193.904 85.8556 195.468 86.7594C197.81 88.1114 200.953 88.8548 204.32 88.8548C207.687 88.8548 210.833 88.1114 213.175 86.7594C214.74 85.8556 215.782 84.7745 216.213 83.6385C215.782 82.497 214.74 81.4186 213.175 80.5147C210.833 79.1628 207.687 78.4167 204.32 78.4167C200.953 78.4167 197.809 79.1634 195.468 80.5147C193.903 81.4186 192.858 82.4992 192.427 83.6385Z" fill="#FFBF00"/>
<path opacity="0.7" d="M192.427 83.6385C192.861 84.7745 193.904 85.8556 195.468 86.7594C197.81 88.1114 200.953 88.8548 204.32 88.8548C207.687 88.8548 210.833 88.1114 213.175 86.7594C214.74 85.8556 215.782 84.7745 216.213 83.6385C215.782 82.497 214.74 81.4186 213.175 80.5147C210.833 79.1628 207.687 78.4167 204.32 78.4167C200.953 78.4167 197.809 79.1634 195.468 80.5147C193.903 81.4186 192.858 82.4992 192.427 83.6385Z" fill="white"/>
<path opacity="0.1" d="M198.483 88.038C197.383 87.7063 196.366 87.2783 195.468 86.76C193.904 85.8562 192.861 84.7751 192.427 83.639C192.858 82.5003 193.904 81.4192 195.468 80.5153C196.194 80.0961 196.998 79.7355 197.861 79.437C197.766 82.1376 197.98 85.1297 198.483 88.038Z" fill="#FFBF00"/>
<path opacity="0.15" d="M194.576 81.0945C194.647 82.8407 194.857 84.7093 195.2 86.5936C193.787 85.7241 192.835 84.7066 192.427 83.638C192.77 82.7336 193.506 81.8668 194.576 81.0945Z" fill="#FFBF00"/>
<path d="M187.016 95.6719C187.016 95.6708 187.016 95.6703 187.016 95.6692L194.931 91.1V91.1011L194.935 91.0989L196.116 91.7803L196.115 91.7809C196.115 91.7809 196.109 92.3399 196.174 93.2497L189.538 97.0777C189.7 98.3774 190.292 99.5667 191.241 100.483C191.416 100.65 191.604 100.801 191.798 100.944C192.513 101.252 193.284 101.421 194.06 101.421C194.652 101.421 195.23 101.33 195.783 101.154C196.302 100.985 196.738 100.784 196.991 100.667L198.175 101.348C198.351 101.718 198.546 102.088 198.754 102.453C196.408 103.805 193.774 103.627 191.723 102.44C191.533 102.329 190.739 101.877 190.534 101.758C188.483 100.573 187.016 98.3796 187.016 95.6719Z" fill="#FFBF00"/>
<path d="M196.116 91.781L188.196 96.3534L187.015 95.672L194.935 91.0996L196.116 91.781Z" fill="#FFBF00"/>
<path opacity="0.6" d="M196.116 91.781L188.196 96.3534L187.015 95.672L194.935 91.0996L196.116 91.781Z" fill="white"/>
<path d="M188.199 96.3502C188.199 101.77 194.062 105.157 198.754 102.453C198.546 102.089 198.351 101.719 198.175 101.348C197.922 101.465 197.486 101.667 196.966 101.835C196.414 102.011 195.836 102.102 195.244 102.102C193.775 102.102 192.319 101.51 191.24 100.483C190.291 99.5669 189.7 98.3775 189.538 97.0778L196.173 93.2499C196.108 92.34 196.115 91.781 196.115 91.781L188.199 96.3502Z" fill="#FFBF00"/>
<path opacity="0.4" d="M188.199 96.3502C188.199 101.77 194.062 105.157 198.754 102.453C198.546 102.089 198.351 101.719 198.175 101.348C197.922 101.465 197.486 101.667 196.966 101.835C196.414 102.011 195.836 102.102 195.244 102.102C193.775 102.102 192.319 101.51 191.24 100.483C190.291 99.5669 189.7 98.3775 189.538 97.0778L196.173 93.2499C196.108 92.34 196.115 91.781 196.115 91.781L188.199 96.3502Z" fill="white"/>
<path d="M215.87 95.6084L217.834 104.25L218.619 102.171L219.326 100.288L220.477 100.434L221.746 100.595L219.781 91.9528L215.87 95.6084Z" fill="#FFBF00"/>
<g opacity="0.2">
<path d="M215.87 95.6084L217.834 104.25L218.619 102.171L219.326 100.288L220.477 100.434L221.746 100.595L219.781 91.9528L215.87 95.6084Z" fill="white"/>
</g>
<path d="M218.02 101.761L216.515 95.1414L216.706 94.963L218.096 101.076L218.969 98.7654L220.384 98.9334L218.995 92.8231L219.186 92.6447L220.691 99.2673L219.037 99.0705L218.02 101.761Z" fill="#FFBF00"/>
<g opacity="0.2">
<path d="M218.02 101.761L216.515 95.1414L216.706 94.963L218.096 101.076L218.969 98.7654L220.384 98.9334L218.995 92.8231L219.186 92.6447L220.691 99.2673L219.037 99.0705L218.02 101.761Z" fill="black"/>
</g>
<path opacity="0.3" d="M217.347 102.108L218.81 93.9858L217.235 94.3327L215.87 95.6085L217.347 102.108Z" fill="black"/>
<path d="M218.499 94.09L216.534 105.001L215.749 103.828L215.043 102.761L213.891 104.237L212.623 105.862L214.587 94.9509L218.499 94.09Z" fill="#FFBF00"/>
<g opacity="0.4">
<path d="M218.499 94.09L216.534 105.001L215.749 103.828L215.043 102.761L213.891 104.237L212.623 105.862L214.587 94.9509L218.499 94.09Z" fill="white"/>
</g>
<path d="M216.348 102.727L215.331 101.211L213.676 103.318L215.182 94.9565L215.373 94.9146L213.984 102.629L215.399 100.826L216.272 102.128L217.662 94.411L217.853 94.3686L216.348 102.727Z" fill="#FFBF00"/>
<path opacity="0.3" d="M219.781 91.9528L217.184 94.3799L214.587 94.9514L213.932 98.5901C214.078 98.6576 214.257 98.6391 214.443 98.5319C214.515 98.4906 214.586 98.4362 214.656 98.371C214.677 98.3525 214.697 98.3367 214.718 98.3247C214.825 98.2627 214.92 98.3046 214.949 98.427C215.047 98.8528 215.378 98.9985 215.754 98.7816C215.924 98.6837 216.087 98.52 216.228 98.309C216.268 98.2486 216.315 98.2013 216.364 98.1736C216.442 98.1284 216.515 98.1366 216.56 98.1953C216.716 98.3998 216.97 98.4286 217.241 98.2725C217.511 98.1165 217.766 97.794 217.922 97.409C217.966 97.2986 218.04 97.2061 218.117 97.161C218.166 97.1327 218.213 97.1256 218.253 97.1398C218.394 97.1887 218.558 97.1632 218.728 97.0647C219.103 96.8477 219.435 96.3197 219.533 95.7802C219.561 95.6252 219.656 95.474 219.764 95.4121C219.784 95.4001 219.805 95.3919 219.825 95.387C219.895 95.3713 219.967 95.3424 220.039 95.3006C220.186 95.2157 220.329 95.0803 220.455 94.9107L219.781 91.9528Z" fill="black"/>
<path d="M217.678 84.8968C217.848 85.1198 218.18 85.0061 218.422 84.6423C218.727 84.185 219.148 84.1464 219.246 84.5667C219.323 84.9012 219.615 84.9572 219.9 84.6929C220.258 84.3601 220.602 84.5461 220.571 85.0562C220.546 85.4619 220.763 85.681 221.057 85.5472C221.425 85.3792 221.65 85.768 221.494 86.3059C221.371 86.7339 221.486 87.0895 221.753 87.1031C222.088 87.12 222.166 87.6643 221.905 88.1657C221.697 88.5643 221.697 89.0141 221.905 89.1729C222.166 89.373 222.088 90.0071 221.753 90.4112C221.486 90.732 221.371 91.2215 221.494 91.507C221.649 91.8659 221.425 92.5136 221.057 92.7713C220.763 92.9763 220.546 93.4462 220.571 93.8231C220.602 94.2973 220.258 94.8808 219.9 94.9613C219.615 95.0255 219.323 95.4192 219.246 95.8423C219.148 96.3752 218.727 96.8233 218.422 96.7173C218.18 96.633 217.848 96.9027 217.678 97.3215C217.465 97.8484 217.016 98.1073 216.802 97.8272C216.633 97.6048 216.3 97.7179 216.058 98.0817C215.754 98.5391 215.332 98.5782 215.235 98.1573C215.158 97.8229 214.866 97.7669 214.581 98.0312C214.222 98.364 213.879 98.178 213.91 97.6679C213.934 97.2622 213.718 97.043 213.424 97.1768C213.055 97.3449 212.831 96.956 212.986 96.4182C213.109 95.9902 212.994 95.6345 212.727 95.621C212.392 95.6041 212.314 95.0597 212.575 94.5583C212.783 94.1597 212.783 93.71 212.575 93.5512C212.314 93.3511 212.392 92.717 212.727 92.3129C212.994 91.9915 213.109 91.5026 212.986 91.2171C212.831 90.8582 213.055 90.2105 213.424 89.9527C213.717 89.7477 213.934 89.2778 213.91 88.901C213.879 88.4268 214.223 87.8432 214.581 87.7628C214.866 87.6986 215.158 87.3049 215.235 86.8812C215.332 86.3483 215.754 85.9002 216.058 86.0062C216.3 86.0905 216.633 85.8208 216.802 85.402C217.016 84.8756 217.465 84.6168 217.678 84.8968Z" fill="#263238"/>
<path d="M213.223 93.6817C213.223 90.7233 215.022 87.2869 217.24 86.0057C219.459 84.725 221.258 86.0845 221.258 89.0429C221.258 92.0013 219.459 95.4377 217.24 96.7189C215.022 97.9996 213.223 96.6395 213.223 93.6817Z" fill="#FFBF00"/>
<path d="M214.551 92.9148C214.551 90.9342 215.755 88.6333 217.241 87.7757C218.726 86.9181 219.93 87.8284 219.93 89.809C219.93 91.7896 218.726 94.0905 217.241 94.9481C215.755 95.8057 214.551 94.8954 214.551 92.9148Z" fill="#FAFAFA"/>
<path d="M216.1 91.3123C216.08 91.2846 216.073 91.246 216.078 91.1943C216.084 91.1421 216.1 91.0953 216.125 91.0507L217.036 89.4486C217.058 89.41 217.086 89.3633 217.118 89.31C217.15 89.2561 217.188 89.2175 217.23 89.1936L217.747 88.895C217.778 88.8771 217.805 88.8787 217.827 88.9005C217.85 88.9222 217.862 88.9565 217.862 89.0044V93.2157C217.862 93.2635 217.85 93.3119 217.827 93.3598C217.805 93.4071 217.778 93.4403 217.747 93.4582L217.192 93.7791C217.161 93.797 217.134 93.7943 217.112 93.7726C217.089 93.7513 217.077 93.716 217.077 93.6687V90.8202L216.573 91.6979C216.548 91.7425 216.519 91.7708 216.489 91.7816C216.458 91.7936 216.432 91.7854 216.413 91.7577L216.1 91.3123Z" fill="#455A64"/>
<path d="M217.24 95.225C215.642 96.1473 214.343 95.1646 214.343 93.035C214.343 90.9049 215.643 88.4218 217.24 87.4995C218.838 86.5772 220.137 87.5598 220.137 89.6894C220.137 91.819 218.838 94.3027 217.24 95.225ZM217.24 88.0526C215.871 88.8427 214.758 90.9702 214.758 92.7947C214.758 94.6197 215.871 95.461 217.24 94.6714C218.609 93.8812 219.722 91.7538 219.722 89.9287C219.722 88.1037 218.609 87.2624 217.24 88.0526Z" fill="#FFBF00"/>
<g opacity="0.3">
<path d="M217.24 95.225C215.642 96.1473 214.343 95.1646 214.343 93.035C214.343 90.9049 215.643 88.4218 217.24 87.4995C218.838 86.5772 220.137 87.5598 220.137 89.6894C220.137 91.819 218.838 94.3027 217.24 95.225ZM217.24 88.0526C215.871 88.8427 214.758 90.9702 214.758 92.7947C214.758 94.6197 215.871 95.461 217.24 94.6714C218.609 93.8812 219.722 91.7538 219.722 89.9287C219.722 88.1037 218.609 87.2624 217.24 88.0526Z" fill="black"/>
</g>
<path d="M220.744 88.7997L220.837 88.9966L221.044 88.9172C221.094 88.8982 221.113 88.9678 221.078 89.0347L220.927 89.3163L220.963 89.5714C220.971 89.6323 220.92 89.7117 220.876 89.7063L220.69 89.6834L220.505 89.9205C220.461 89.9771 220.409 89.957 220.417 89.8863L220.453 89.5904L220.303 89.4822C220.267 89.4567 220.286 89.3642 220.336 89.3261L220.543 89.1663L220.636 88.8623C220.658 88.7899 220.722 88.753 220.744 88.7997Z" fill="#FAFAFA"/>
<path d="M220.55 90.5657L220.612 90.6979L220.751 90.6446C220.784 90.6321 220.797 90.6783 220.773 90.7234L220.673 90.9121L220.697 91.0829C220.702 91.1237 220.668 91.177 220.638 91.1737L220.514 91.1585L220.389 91.3173C220.36 91.3548 220.325 91.3417 220.331 91.2944L220.355 91.0959L220.254 91.0231C220.23 91.0056 220.243 90.9442 220.276 90.9186L220.415 90.8115L220.477 90.6076C220.493 90.5586 220.536 90.5342 220.55 90.5657Z" fill="#FAFAFA"/>
<path d="M220.55 87.5709L220.612 87.7031L220.751 87.6498C220.784 87.6372 220.797 87.6835 220.773 87.7286L220.673 87.9173L220.697 88.0881C220.702 88.1289 220.668 88.1822 220.638 88.1789L220.514 88.1637L220.389 88.3225C220.36 88.3605 220.325 88.3469 220.331 88.2996L220.355 88.1017L220.254 88.0288C220.23 88.0114 220.243 87.9494 220.276 87.9239L220.415 87.8167L220.477 87.6128C220.493 87.5644 220.536 87.5394 220.55 87.5709Z" fill="#FAFAFA"/>
<path d="M213.736 92.8457L213.643 93.1497L213.436 93.3096C213.386 93.3477 213.367 93.4401 213.403 93.4657L213.553 93.5739L213.517 93.8697C213.509 93.9404 213.56 93.9605 213.605 93.904L213.79 93.6669L213.976 93.6897C214.02 93.6952 214.072 93.6152 214.063 93.5549L214.028 93.2998L214.178 93.0181C214.214 92.9512 214.194 92.8816 214.145 92.9006L213.938 92.98L213.845 92.7832C213.822 92.7364 213.758 92.7728 213.736 92.8457Z" fill="#FAFAFA"/>
<path d="M213.931 94.387L213.869 94.5909L213.73 94.6981C213.697 94.7236 213.684 94.7856 213.708 94.803L213.808 94.8759L213.784 95.0744C213.779 95.1217 213.813 95.1353 213.843 95.0972L213.968 94.9384L214.092 94.9537C214.121 94.9575 214.156 94.9036 214.151 94.8634L214.127 94.6926L214.227 94.5039C214.251 94.4588 214.238 94.4126 214.205 94.4251L214.066 94.4784L214.004 94.3462C213.989 94.3136 213.946 94.3386 213.931 94.387Z" fill="#FAFAFA"/>
<path d="M213.931 91.3921L213.869 91.596L213.73 91.7031C213.697 91.7287 213.684 91.7907 213.708 91.8081L213.808 91.881L213.784 92.0795C213.779 92.1268 213.813 92.1404 213.843 92.1023L213.968 91.9435L214.092 91.9587C214.121 91.9626 214.156 91.9087 214.151 91.8685L214.127 91.6977L214.227 91.509C214.251 91.4639 214.238 91.4177 214.205 91.4302L214.066 91.4835L214.004 91.3513C213.989 91.3192 213.946 91.3437 213.931 91.3921Z" fill="#FAFAFA"/>
</svg>
